<svg width="19" height="18" viewBox="0 0 19 18" fill="none" xmlns="http://www.w3.org/2000/svg">
<path d="M5.01636 9.07917H6.70598L8.3956 11.6136L11.7748 6.54474L13.4645 9.07917H15.1541" stroke="#0095FF" stroke-width="1.26721" stroke-linecap="round" stroke-linejoin="round"/>
<path d="M1.14777 6.30769C1.73134 4.06989 3.51435 2.35786 5.75333 1.88545L6.18117 1.79518C8.19908 1.36942 10.2821 1.36942 12.3 1.79518L12.7278 1.88545C14.9668 2.35786 16.7498 4.06989 17.3334 6.30769C17.8071 8.12424 17.8071 10.0341 17.3334 11.8506C16.7498 14.0884 14.9668 15.8004 12.7278 16.2728L12.3 16.3631C10.2821 16.7889 8.19908 16.7889 6.18117 16.3631L5.75333 16.2728C3.51435 15.8004 1.73134 14.0884 1.14777 11.8506C0.67405 10.0341 0.67405 8.12424 1.14777 6.30769Z" stroke="white" stroke-width="1.26721"/>
</svg>
