<svg width="17" height="17" viewBox="0 0 17 17" fill="none" xmlns="http://www.w3.org/2000/svg">
<path d="M0.888003 2.67748C1.07844 1.86561 1.71235 1.2317 2.52422 1.04126V1.04126C3.22781 0.876223 3.96004 0.876223 4.66362 1.04126V1.04126C5.47549 1.2317 6.1094 1.86561 6.29984 2.67748V2.67748C6.46488 3.38106 6.46488 4.11329 6.29984 4.81688V4.81688C6.1094 5.62875 5.47549 6.26266 4.66362 6.4531V6.4531C3.96004 6.61813 3.22781 6.61813 2.52422 6.4531V6.4531C1.71235 6.26266 1.07844 5.62875 0.888003 4.81688V4.81688C0.722964 4.11329 0.722964 3.38106 0.888003 2.67748V2.67748Z" stroke="white" stroke-width="1.26721"/>
<path d="M0.888003 11.9704C1.07844 11.1585 1.71235 10.5246 2.52422 10.3342V10.3342C3.22781 10.1691 3.96004 10.1691 4.66362 10.3342V10.3342C5.47549 10.5246 6.1094 11.1585 6.29984 11.9704V11.9704C6.46488 12.674 6.46488 13.4062 6.29984 14.1098V14.1098C6.1094 14.9217 5.47549 15.5556 4.66362 15.746V15.746C3.96004 15.911 3.22781 15.911 2.52422 15.746V15.746C1.71235 15.5556 1.07844 14.9217 0.888003 14.1098V14.1098C0.722964 13.4062 0.722964 12.674 0.888003 11.9704V11.9704Z" stroke="#0095FF" stroke-width="1.26721"/>
<path d="M10.1808 2.67748C10.3713 1.86561 11.0052 1.2317 11.8171 1.04126V1.04126C12.5207 0.876223 13.2529 0.876223 13.9565 1.04126V1.04126C14.7683 1.2317 15.4022 1.86561 15.5927 2.67748V2.67748C15.7577 3.38106 15.7577 4.11329 15.5927 4.81688V4.81688C15.4022 5.62875 14.7683 6.26266 13.9565 6.4531V6.4531C13.2529 6.61813 12.5207 6.61813 11.8171 6.4531V6.4531C11.0052 6.26266 10.3713 5.62875 10.1808 4.81688V4.81688C10.0158 4.11329 10.0158 3.38106 10.1808 2.67748V2.67748Z" stroke="white" stroke-width="1.26721"/>
<path d="M10.1808 11.9704C10.3713 11.1585 11.0052 10.5246 11.8171 10.3342V10.3342C12.5207 10.1691 13.2529 10.1691 13.9565 10.3342V10.3342C14.7683 10.5246 15.4022 11.1585 15.5927 11.9704V11.9704C15.7577 12.674 15.7577 13.4062 15.5927 14.1098V14.1098C15.4022 14.9217 14.7683 15.5556 13.9565 15.746V15.746C13.2529 15.911 12.5207 15.911 11.8171 15.746V15.746C11.0052 15.5556 10.3713 14.9217 10.1808 14.1098V14.1098C10.0158 13.4062 10.0158 12.674 10.1808 11.9704V11.9704Z" stroke="white" stroke-width="1.26721"/>
</svg>
