<svg width="17" height="17" viewBox="0 0 17 17" fill="none" xmlns="http://www.w3.org/2000/svg">
<path d="M0.935321 5.71249C1.48571 3.3661 3.31779 1.53401 5.66419 0.983625C7.35873 0.58614 9.12226 0.58614 10.8168 0.983625C13.1632 1.53401 14.9953 3.3661 15.5457 5.7125C15.9432 7.40703 15.9432 9.17057 15.5457 10.8651C14.9953 13.2115 13.1632 15.0436 10.8168 15.594C9.12226 15.9915 7.35873 15.9915 5.6642 15.594C3.3178 15.0436 1.48571 13.2115 0.935322 10.8651C0.537835 9.17057 0.537835 7.40704 0.935321 5.71249Z" stroke="#0095FF" stroke-width="1.26721"/>
<path d="M0.935321 5.71249C0.537835 7.40704 0.537835 9.17057 0.935322 10.8651C1.48571 13.2115 3.3178 15.0436 5.6642 15.594C7.35873 15.9915 9.12226 15.9915 10.8168 15.594C13.1632 15.0436 14.9953 13.2115 15.5457 10.8651C15.9432 9.17057 15.9432 7.40703 15.5457 5.7125C14.9953 3.3661 13.1632 1.53401 10.8168 0.983625" stroke="white" stroke-width="1.26721" stroke-linecap="round"/>
<path d="M4.28589 6.09178L5.16472 6.97062L6.92239 5.21295M9.11947 6.5312H12.1954M4.28589 10.4859L5.16472 11.3648L6.92239 9.60712M9.11947 10.9254H12.1954" stroke="#0095FF" stroke-width="1.26721" stroke-linecap="round" stroke-linejoin="round"/>
</svg>
