<svg width="17" height="18" viewBox="0 0 17 18" fill="none" xmlns="http://www.w3.org/2000/svg">
<path d="M10.9718 1.8788C13.3182 2.42919 15.1503 4.26128 15.7007 6.60767C16.0982 8.30221 16.0982 10.0657 15.7007 11.7603C15.1503 14.1067 13.3182 15.9388 10.9718 16.4892C9.27729 16.8866 7.51376 16.8866 5.81922 16.4892C3.47282 15.9388 1.64074 14.1067 1.09035 11.7603C0.692865 10.0657 0.692866 8.30221 1.09035 6.60768C1.64074 4.26128 3.47282 2.42919 5.81922 1.8788C7.51376 1.48132 9.27729 1.48132 10.9718 1.8788Z" stroke="#0095FF" stroke-width="1.26721"/>
<path d="M7.7618 11.8205C7.7618 12.1704 8.04548 12.4541 8.39541 12.4541C8.74534 12.4541 9.02902 12.1704 9.02902 11.8205H7.7618ZM5.75891 5.91385C5.40898 5.91385 5.1253 6.19752 5.1253 6.54745C5.1253 6.89739 5.40898 7.18106 5.75891 7.18106V5.91385ZM11.0319 7.18106C11.3818 7.18106 11.6655 6.89739 11.6655 6.54745C11.6655 6.19752 11.3818 5.91385 11.0319 5.91385V7.18106ZM7.7618 6.54745V11.8205H9.02902V6.54745H7.7618ZM8.39541 5.91385H5.75891V7.18106H8.39541V5.91385ZM8.39541 7.18106H11.0319V5.91385H8.39541V7.18106Z" fill="#0095FF"/>
<path d="M10.9718 1.8788C9.27729 1.48132 7.51376 1.48132 5.81922 1.8788C3.47282 2.42919 1.64074 4.26128 1.09035 6.60768C0.692866 8.30221 0.692865 10.0657 1.09035 11.7603C1.64074 14.1067 3.47282 15.9388 5.81922 16.4892C7.51376 16.8866 9.27729 16.8866 10.9718 16.4892C13.3182 15.9388 15.1503 14.1067 15.7007 11.7603" stroke="white" stroke-width="1.26721" stroke-linecap="round"/>
</svg>
