<svg width="32" height="32" viewBox="0 0 32 32" fill="none" xmlns="http://www.w3.org/2000/svg">
<path d="M13.7288 11.6683C13.0945 11.9706 12.5419 12.4208 12.1177 12.981C11.6934 13.5411 11.4098 14.1949 11.2907 14.8875C11.1716 15.58 11.2204 16.291 11.4332 16.9607C11.6459 17.6304 12.0162 18.2393 12.5131 18.7362C13.01 19.2331 13.6189 19.6034 14.2886 19.8161C14.9583 20.0288 15.6693 20.0777 16.3618 19.9586C17.0544 19.8395 17.7082 19.5559 18.2683 19.1316C18.8285 18.7074 19.2787 18.1548 19.581 17.5205" stroke="black" stroke-width="1.68962" stroke-linecap="round" stroke-linejoin="round"/>
<path d="M18.7446 6.64852C16.7133 5.94206 14.5025 5.94573 12.4735 6.65891C10.4446 7.3721 8.71773 8.7526 7.57526 10.5747C6.43279 12.3967 5.94235 14.5525 6.18415 16.6895C6.42596 18.8265 7.38569 20.8182 8.90641 22.3389C10.4271 23.8596 12.4188 24.8193 14.5558 25.0611C16.6928 25.3029 18.8486 24.8125 20.6706 23.67C22.4927 22.5276 23.8732 20.8007 24.5864 18.7717C25.2995 16.7428 25.3032 14.532 24.5968 12.5007" stroke="black" stroke-width="1.68962" stroke-linecap="round" stroke-linejoin="round"/>
<path d="M22.6136 2.77948C19.5255 1.09852 15.9351 0.586513 12.5003 1.33727C9.06541 2.08803 6.01605 4.05127 3.91087 6.86733C1.80568 9.68338 0.785642 13.1637 1.03762 16.6706C1.2896 20.1775 2.79672 23.4762 5.28288 25.9624C7.76904 28.4485 11.0678 29.9557 14.5747 30.2076C18.0816 30.4596 21.5619 29.4396 24.3779 27.3344C27.194 25.2292 29.1572 22.1798 29.908 18.745C30.6587 15.3101 30.1467 11.7197 28.4658 8.63164" stroke="black" stroke-width="1.68962" stroke-linecap="round" stroke-linejoin="round"/>
<path d="M30.2448 1.00031L15.6144 15.6307" stroke="black" stroke-width="1.68962" stroke-linecap="round" stroke-linejoin="round"/>
</svg>
