<svg width="223" height="223" viewBox="0 0 223 223" fill="none" xmlns="http://www.w3.org/2000/svg">
<path d="M214.707 52.2692C215.323 53.3355 215.922 54.4123 216.505 55.4991C215.446 54.8063 214.739 53.6214 214.707 52.2692Z" fill="#B8FF01"/>
<path d="M192.971 24.8628C194.821 26.5987 196.615 28.3931 198.351 30.2429C197.68 31.4836 196.367 32.3262 194.858 32.3262C192.665 32.3262 190.888 30.5489 190.888 28.3565C190.888 26.8469 191.731 25.5341 192.971 24.8628Z" fill="#B8FF01"/>
<path d="M167.715 6.70876C168.802 7.29186 169.879 7.89133 170.945 8.50686C169.593 8.4753 168.408 7.7676 167.715 6.70876Z" fill="#B8FF01"/>
<path d="M52.0424 8.50686C53.1088 7.89133 54.1855 7.29186 55.2723 6.70876C54.5796 7.7676 53.3946 8.4753 52.0424 8.50686Z" fill="#B8FF01"/>
<path d="M24.6361 30.2429C26.372 28.3931 28.1664 26.5987 30.0162 24.8628C31.2568 25.5341 32.0995 26.8469 32.0995 28.3565C32.0995 30.5489 30.3222 32.3262 28.1298 32.3262C26.6201 32.3262 25.3073 31.4836 24.6361 30.2429Z" fill="#B8FF01"/>
<path d="M6.48201 55.4991C7.06511 54.4123 7.66459 53.3355 8.28011 52.2692C8.24855 53.6214 7.54086 54.8063 6.48201 55.4991Z" fill="#B8FF01"/>
<path d="M216.505 167.942C215.922 169.029 215.323 170.105 214.707 171.172C214.739 169.819 215.446 168.634 216.505 167.942Z" fill="#B8FF01"/>
<path d="M198.351 193.198C197.68 191.957 196.367 191.115 194.858 191.115C192.665 191.115 190.888 192.892 190.888 195.084C190.888 196.594 191.731 197.907 192.971 198.578C194.821 196.842 196.615 195.048 198.351 193.198Z" fill="#B8FF01"/>
<path d="M170.945 214.934C169.593 214.966 168.408 215.673 167.715 216.732C168.802 216.149 169.879 215.55 170.945 214.934Z" fill="#B8FF01"/>
<path d="M55.2723 216.732C54.5796 215.673 53.3946 214.966 52.0424 214.934C53.1088 215.55 54.1855 216.149 55.2723 216.732Z" fill="#B8FF01"/>
<path d="M30.0162 198.578C31.2568 197.907 32.0995 196.594 32.0995 195.084C32.0995 192.892 30.3222 191.115 28.1298 191.115C26.6201 191.115 25.3073 191.957 24.6361 193.198C26.372 195.048 28.1664 196.842 30.0162 198.578Z" fill="#B8FF01"/>
<path d="M8.28011 171.172C8.24855 169.819 7.54086 168.634 6.48201 167.942C7.06511 169.029 7.66459 170.105 8.28011 171.172Z" fill="#B8FF01"/>
<path d="M79.736 4.53825C79.736 6.73066 77.9587 8.50796 75.7663 8.50796C73.5739 8.50796 71.7966 6.73066 71.7966 4.53825C71.7966 2.34584 73.5739 0.568542 75.7663 0.568542C77.9587 0.568542 79.736 2.34584 79.736 4.53825Z" fill="#B8FF01"/>
<path d="M103.554 4.53825C103.554 6.73066 101.777 8.50796 99.5845 8.50796C97.3921 8.50796 95.6148 6.73066 95.6148 4.53825C95.6148 2.34584 97.3921 0.568542 99.5845 0.568542C101.777 0.568542 103.554 2.34584 103.554 4.53825Z" fill="#B8FF01"/>
<path d="M127.373 4.53825C127.373 6.73066 125.595 8.50796 123.403 8.50796C121.21 8.50796 119.433 6.73066 119.433 4.53825C119.433 2.34584 121.21 0.568542 123.403 0.568542C125.595 0.568542 127.373 2.34584 127.373 4.53825Z" fill="#B8FF01"/>
<path d="M151.191 4.53825C151.191 6.73066 149.413 8.50796 147.221 8.50796C145.029 8.50796 143.251 6.73066 143.251 4.53825C143.251 2.34584 145.029 0.568542 147.221 0.568542C149.413 0.568542 151.191 2.34584 151.191 4.53825Z" fill="#B8FF01"/>
<path d="M55.9177 28.3565C55.9177 30.5489 54.1404 32.3262 51.948 32.3262C49.7556 32.3262 47.9783 30.5489 47.9783 28.3565C47.9783 26.1641 49.7556 24.3868 51.948 24.3868C54.1404 24.3868 55.9177 26.1641 55.9177 28.3565Z" fill="#B8FF01"/>
<path d="M79.736 28.3565C79.736 30.5489 77.9587 32.3262 75.7663 32.3262C73.5739 32.3262 71.7966 30.5489 71.7966 28.3565C71.7966 26.1641 73.5739 24.3868 75.7663 24.3868C77.9587 24.3868 79.736 26.1641 79.736 28.3565Z" fill="#B8FF01"/>
<path d="M103.554 28.3565C103.554 30.5489 101.777 32.3262 99.5845 32.3262C97.3921 32.3262 95.6148 30.5489 95.6148 28.3565C95.6148 26.1641 97.3921 24.3868 99.5845 24.3868C101.777 24.3868 103.554 26.1641 103.554 28.3565Z" fill="#B8FF01"/>
<path d="M127.373 28.3565C127.373 30.5489 125.595 32.3262 123.403 32.3262C121.21 32.3262 119.433 30.5489 119.433 28.3565C119.433 26.1641 121.21 24.3868 123.403 24.3868C125.595 24.3868 127.373 26.1641 127.373 28.3565Z" fill="#B8FF01"/>
<path d="M151.191 28.3565C151.191 30.5489 149.413 32.3262 147.221 32.3262C145.029 32.3262 143.251 30.5489 143.251 28.3565C143.251 26.1641 145.029 24.3868 147.221 24.3868C149.413 24.3868 151.191 26.1641 151.191 28.3565Z" fill="#B8FF01"/>
<path d="M175.009 28.3565C175.009 30.5489 173.232 32.3262 171.039 32.3262C168.847 32.3262 167.07 30.5489 167.07 28.3565C167.07 26.1641 168.847 24.3868 171.039 24.3868C173.232 24.3868 175.009 26.1641 175.009 28.3565Z" fill="#B8FF01"/>
<path d="M32.0995 52.1748C32.0995 54.3672 30.3222 56.1445 28.1298 56.1445C25.9374 56.1445 24.1601 54.3672 24.1601 52.1748C24.1601 49.9824 25.9374 48.2051 28.1298 48.2051C30.3222 48.2051 32.0995 49.9824 32.0995 52.1748Z" fill="#B8FF01"/>
<path d="M55.9177 52.1748C55.9177 54.3672 54.1404 56.1445 51.948 56.1445C49.7556 56.1445 47.9783 54.3672 47.9783 52.1748C47.9783 49.9824 49.7556 48.2051 51.948 48.2051C54.1404 48.2051 55.9177 49.9824 55.9177 52.1748Z" fill="#B8FF01"/>
<path d="M79.736 52.1748C79.736 54.3672 77.9587 56.1445 75.7663 56.1445C73.5739 56.1445 71.7966 54.3672 71.7966 52.1748C71.7966 49.9824 73.5739 48.2051 75.7663 48.2051C77.9587 48.2051 79.736 49.9824 79.736 52.1748Z" fill="#B8FF01"/>
<path d="M103.554 52.1748C103.554 54.3672 101.777 56.1445 99.5845 56.1445C97.3921 56.1445 95.6148 54.3672 95.6148 52.1748C95.6148 49.9824 97.3921 48.2051 99.5845 48.2051C101.777 48.2051 103.554 49.9824 103.554 52.1748Z" fill="#B8FF01"/>
<path d="M127.373 52.1748C127.373 54.3672 125.595 56.1445 123.403 56.1445C121.21 56.1445 119.433 54.3672 119.433 52.1748C119.433 49.9824 121.21 48.2051 123.403 48.2051C125.595 48.2051 127.373 49.9824 127.373 52.1748Z" fill="#B8FF01"/>
<path d="M151.191 52.1748C151.191 54.3672 149.413 56.1445 147.221 56.1445C145.029 56.1445 143.251 54.3672 143.251 52.1748C143.251 49.9824 145.029 48.2051 147.221 48.2051C149.413 48.2051 151.191 49.9824 151.191 52.1748Z" fill="#B8FF01"/>
<path d="M175.009 52.1748C175.009 54.3672 173.232 56.1445 171.039 56.1445C168.847 56.1445 167.07 54.3672 167.07 52.1748C167.07 49.9824 168.847 48.2051 171.039 48.2051C173.232 48.2051 175.009 49.9824 175.009 52.1748Z" fill="#B8FF01"/>
<path d="M198.827 52.1748C198.827 54.3672 197.05 56.1445 194.858 56.1445C192.665 56.1445 190.888 54.3672 190.888 52.1748C190.888 49.9824 192.665 48.2051 194.858 48.2051C197.05 48.2051 198.827 49.9824 198.827 52.1748Z" fill="#B8FF01"/>
<path d="M8.28122 75.993C8.28122 78.1854 6.50392 79.9627 4.31151 79.9627C2.1191 79.9627 0.341797 78.1854 0.341797 75.993C0.341797 73.8006 2.1191 72.0233 4.31151 72.0233C6.50392 72.0233 8.28122 73.8006 8.28122 75.993Z" fill="#B8FF01"/>
<path d="M32.0995 75.993C32.0995 78.1854 30.3222 79.9627 28.1298 79.9627C25.9374 79.9627 24.1601 78.1854 24.1601 75.993C24.1601 73.8006 25.9374 72.0233 28.1298 72.0233C30.3222 72.0233 32.0995 73.8006 32.0995 75.993Z" fill="#B8FF01"/>
<path d="M55.9177 75.993C55.9177 78.1854 54.1404 79.9627 51.948 79.9627C49.7556 79.9627 47.9783 78.1854 47.9783 75.993C47.9783 73.8006 49.7556 72.0233 51.948 72.0233C54.1404 72.0233 55.9177 73.8006 55.9177 75.993Z" fill="#B8FF01"/>
<path d="M79.736 75.993C79.736 78.1854 77.9587 79.9627 75.7663 79.9627C73.5739 79.9627 71.7966 78.1854 71.7966 75.993C71.7966 73.8006 73.5739 72.0233 75.7663 72.0233C77.9587 72.0233 79.736 73.8006 79.736 75.993Z" fill="#B8FF01"/>
<path d="M103.554 75.993C103.554 78.1854 101.777 79.9627 99.5845 79.9627C97.3921 79.9627 95.6148 78.1854 95.6148 75.993C95.6148 73.8006 97.3921 72.0233 99.5845 72.0233C101.777 72.0233 103.554 73.8006 103.554 75.993Z" fill="#B8FF01"/>
<path d="M127.373 75.993C127.373 78.1854 125.595 79.9627 123.403 79.9627C121.21 79.9627 119.433 78.1854 119.433 75.993C119.433 73.8006 121.21 72.0233 123.403 72.0233C125.595 72.0233 127.373 73.8006 127.373 75.993Z" fill="#B8FF01"/>
<path d="M151.191 75.993C151.191 78.1854 149.413 79.9627 147.221 79.9627C145.029 79.9627 143.251 78.1854 143.251 75.993C143.251 73.8006 145.029 72.0233 147.221 72.0233C149.413 72.0233 151.191 73.8006 151.191 75.993Z" fill="#B8FF01"/>
<path d="M175.009 75.993C175.009 78.1854 173.232 79.9627 171.039 79.9627C168.847 79.9627 167.07 78.1854 167.07 75.993C167.07 73.8006 168.847 72.0233 171.039 72.0233C173.232 72.0233 175.009 73.8006 175.009 75.993Z" fill="#B8FF01"/>
<path d="M198.827 75.993C198.827 78.1854 197.05 79.9627 194.858 79.9627C192.665 79.9627 190.888 78.1854 190.888 75.993C190.888 73.8006 192.665 72.0233 194.858 72.0233C197.05 72.0233 198.827 73.8006 198.827 75.993Z" fill="#B8FF01"/>
<path d="M222.646 75.993C222.646 78.1854 220.868 79.9627 218.676 79.9627C216.483 79.9627 214.706 78.1854 214.706 75.993C214.706 73.8006 216.483 72.0233 218.676 72.0233C220.868 72.0233 222.646 73.8006 222.646 75.993Z" fill="#B8FF01"/>
<path d="M8.28122 99.8113C8.28122 102.004 6.50392 103.781 4.31151 103.781C2.1191 103.781 0.341797 102.004 0.341797 99.8113C0.341797 97.6189 2.1191 95.8416 4.31151 95.8416C6.50392 95.8416 8.28122 97.6189 8.28122 99.8113Z" fill="#B8FF01"/>
<path d="M32.0995 99.8113C32.0995 102.004 30.3222 103.781 28.1298 103.781C25.9374 103.781 24.1601 102.004 24.1601 99.8113C24.1601 97.6189 25.9374 95.8416 28.1298 95.8416C30.3222 95.8416 32.0995 97.6189 32.0995 99.8113Z" fill="#B8FF01"/>
<path d="M55.9177 99.8113C55.9177 102.004 54.1404 103.781 51.948 103.781C49.7556 103.781 47.9783 102.004 47.9783 99.8113C47.9783 97.6189 49.7556 95.8416 51.948 95.8416C54.1404 95.8416 55.9177 97.6189 55.9177 99.8113Z" fill="#B8FF01"/>
<path d="M79.736 99.8113C79.736 102.004 77.9587 103.781 75.7663 103.781C73.5739 103.781 71.7966 102.004 71.7966 99.8113C71.7966 97.6189 73.5739 95.8416 75.7663 95.8416C77.9587 95.8416 79.736 97.6189 79.736 99.8113Z" fill="#B8FF01"/>
<path d="M103.554 99.8113C103.554 102.004 101.777 103.781 99.5845 103.781C97.3921 103.781 95.6148 102.004 95.6148 99.8113C95.6148 97.6189 97.3921 95.8416 99.5845 95.8416C101.777 95.8416 103.554 97.6189 103.554 99.8113Z" fill="#B8FF01"/>
<path d="M127.373 99.8113C127.373 102.004 125.595 103.781 123.403 103.781C121.21 103.781 119.433 102.004 119.433 99.8113C119.433 97.6189 121.21 95.8416 123.403 95.8416C125.595 95.8416 127.373 97.6189 127.373 99.8113Z" fill="#B8FF01"/>
<path d="M151.191 99.8113C151.191 102.004 149.413 103.781 147.221 103.781C145.029 103.781 143.251 102.004 143.251 99.8113C143.251 97.6189 145.029 95.8416 147.221 95.8416C149.413 95.8416 151.191 97.6189 151.191 99.8113Z" fill="#B8FF01"/>
<path d="M175.009 99.8113C175.009 102.004 173.232 103.781 171.039 103.781C168.847 103.781 167.07 102.004 167.07 99.8113C167.07 97.6189 168.847 95.8416 171.039 95.8416C173.232 95.8416 175.009 97.6189 175.009 99.8113Z" fill="#B8FF01"/>
<path d="M198.827 99.8113C198.827 102.004 197.05 103.781 194.858 103.781C192.665 103.781 190.888 102.004 190.888 99.8113C190.888 97.6189 192.665 95.8416 194.858 95.8416C197.05 95.8416 198.827 97.6189 198.827 99.8113Z" fill="#B8FF01"/>
<path d="M222.646 99.8113C222.646 102.004 220.868 103.781 218.676 103.781C216.483 103.781 214.706 102.004 214.706 99.8113C214.706 97.6189 216.483 95.8416 218.676 95.8416C220.868 95.8416 222.646 97.6189 222.646 99.8113Z" fill="#B8FF01"/>
<path d="M8.28122 123.63C8.28122 125.822 6.50392 127.599 4.31151 127.599C2.1191 127.599 0.341797 125.822 0.341797 123.63C0.341797 121.437 2.1191 119.66 4.31151 119.66C6.50392 119.66 8.28122 121.437 8.28122 123.63Z" fill="#B8FF01"/>
<path d="M32.0995 123.63C32.0995 125.822 30.3222 127.599 28.1298 127.599C25.9374 127.599 24.1601 125.822 24.1601 123.63C24.1601 121.437 25.9374 119.66 28.1298 119.66C30.3222 119.66 32.0995 121.437 32.0995 123.63Z" fill="#B8FF01"/>
<path d="M55.9177 123.63C55.9177 125.822 54.1404 127.599 51.948 127.599C49.7556 127.599 47.9783 125.822 47.9783 123.63C47.9783 121.437 49.7556 119.66 51.948 119.66C54.1404 119.66 55.9177 121.437 55.9177 123.63Z" fill="#B8FF01"/>
<path d="M79.736 123.63C79.736 125.822 77.9587 127.599 75.7663 127.599C73.5739 127.599 71.7966 125.822 71.7966 123.63C71.7966 121.437 73.5739 119.66 75.7663 119.66C77.9587 119.66 79.736 121.437 79.736 123.63Z" fill="#B8FF01"/>
<path d="M103.554 123.63C103.554 125.822 101.777 127.599 99.5845 127.599C97.3921 127.599 95.6148 125.822 95.6148 123.63C95.6148 121.437 97.3921 119.66 99.5845 119.66C101.777 119.66 103.554 121.437 103.554 123.63Z" fill="#B8FF01"/>
<path d="M127.373 123.63C127.373 125.822 125.595 127.599 123.403 127.599C121.21 127.599 119.433 125.822 119.433 123.63C119.433 121.437 121.21 119.66 123.403 119.66C125.595 119.66 127.373 121.437 127.373 123.63Z" fill="#B8FF01"/>
<path d="M151.191 123.63C151.191 125.822 149.413 127.599 147.221 127.599C145.029 127.599 143.251 125.822 143.251 123.63C143.251 121.437 145.029 119.66 147.221 119.66C149.413 119.66 151.191 121.437 151.191 123.63Z" fill="#B8FF01"/>
<path d="M175.009 123.63C175.009 125.822 173.232 127.599 171.039 127.599C168.847 127.599 167.07 125.822 167.07 123.63C167.07 121.437 168.847 119.66 171.039 119.66C173.232 119.66 175.009 121.437 175.009 123.63Z" fill="#B8FF01"/>
<path d="M198.827 123.63C198.827 125.822 197.05 127.599 194.858 127.599C192.665 127.599 190.888 125.822 190.888 123.63C190.888 121.437 192.665 119.66 194.858 119.66C197.05 119.66 198.827 121.437 198.827 123.63Z" fill="#B8FF01"/>
<path d="M222.646 123.63C222.646 125.822 220.868 127.599 218.676 127.599C216.483 127.599 214.706 125.822 214.706 123.63C214.706 121.437 216.483 119.66 218.676 119.66C220.868 119.66 222.646 121.437 222.646 123.63Z" fill="#B8FF01"/>
<path d="M8.28122 147.448C8.28122 149.64 6.50392 151.418 4.31151 151.418C2.1191 151.418 0.341797 149.64 0.341797 147.448C0.341797 145.255 2.1191 143.478 4.31151 143.478C6.50392 143.478 8.28122 145.255 8.28122 147.448Z" fill="#B8FF01"/>
<path d="M32.0995 147.448C32.0995 149.64 30.3222 151.418 28.1298 151.418C25.9374 151.418 24.1601 149.64 24.1601 147.448C24.1601 145.255 25.9374 143.478 28.1298 143.478C30.3222 143.478 32.0995 145.255 32.0995 147.448Z" fill="#B8FF01"/>
<path d="M55.9177 147.448C55.9177 149.64 54.1404 151.418 51.948 151.418C49.7556 151.418 47.9783 149.64 47.9783 147.448C47.9783 145.255 49.7556 143.478 51.948 143.478C54.1404 143.478 55.9177 145.255 55.9177 147.448Z" fill="#B8FF01"/>
<path d="M79.736 147.448C79.736 149.64 77.9587 151.418 75.7663 151.418C73.5739 151.418 71.7966 149.64 71.7966 147.448C71.7966 145.255 73.5739 143.478 75.7663 143.478C77.9587 143.478 79.736 145.255 79.736 147.448Z" fill="#B8FF01"/>
<path d="M103.554 147.448C103.554 149.64 101.777 151.418 99.5845 151.418C97.3921 151.418 95.6148 149.64 95.6148 147.448C95.6148 145.255 97.3921 143.478 99.5845 143.478C101.777 143.478 103.554 145.255 103.554 147.448Z" fill="#B8FF01"/>
<path d="M127.373 147.448C127.373 149.64 125.595 151.418 123.403 151.418C121.21 151.418 119.433 149.64 119.433 147.448C119.433 145.255 121.21 143.478 123.403 143.478C125.595 143.478 127.373 145.255 127.373 147.448Z" fill="#B8FF01"/>
<path d="M151.191 147.448C151.191 149.64 149.413 151.418 147.221 151.418C145.029 151.418 143.251 149.64 143.251 147.448C143.251 145.255 145.029 143.478 147.221 143.478C149.413 143.478 151.191 145.255 151.191 147.448Z" fill="#B8FF01"/>
<path d="M175.009 147.448C175.009 149.64 173.232 151.418 171.039 151.418C168.847 151.418 167.07 149.64 167.07 147.448C167.07 145.255 168.847 143.478 171.039 143.478C173.232 143.478 175.009 145.255 175.009 147.448Z" fill="#B8FF01"/>
<path d="M198.827 147.448C198.827 149.64 197.05 151.418 194.858 151.418C192.665 151.418 190.888 149.64 190.888 147.448C190.888 145.255 192.665 143.478 194.858 143.478C197.05 143.478 198.827 145.255 198.827 147.448Z" fill="#B8FF01"/>
<path d="M222.646 147.448C222.646 149.64 220.868 151.418 218.676 151.418C216.483 151.418 214.706 149.64 214.706 147.448C214.706 145.255 216.483 143.478 218.676 143.478C220.868 143.478 222.646 145.255 222.646 147.448Z" fill="#B8FF01"/>
<path d="M32.0995 171.266C32.0995 173.458 30.3222 175.236 28.1298 175.236C25.9374 175.236 24.1601 173.458 24.1601 171.266C24.1601 169.074 25.9374 167.296 28.1298 167.296C30.3222 167.296 32.0995 169.074 32.0995 171.266Z" fill="#B8FF01"/>
<path d="M55.9177 171.266C55.9177 173.458 54.1404 175.236 51.948 175.236C49.7556 175.236 47.9783 173.458 47.9783 171.266C47.9783 169.074 49.7556 167.296 51.948 167.296C54.1404 167.296 55.9177 169.074 55.9177 171.266Z" fill="#B8FF01"/>
<path d="M79.736 171.266C79.736 173.458 77.9587 175.236 75.7663 175.236C73.5739 175.236 71.7966 173.458 71.7966 171.266C71.7966 169.074 73.5739 167.296 75.7663 167.296C77.9587 167.296 79.736 169.074 79.736 171.266Z" fill="#B8FF01"/>
<path d="M103.554 171.266C103.554 173.458 101.777 175.236 99.5845 175.236C97.3921 175.236 95.6148 173.458 95.6148 171.266C95.6148 169.074 97.3921 167.296 99.5845 167.296C101.777 167.296 103.554 169.074 103.554 171.266Z" fill="#B8FF01"/>
<path d="M127.373 171.266C127.373 173.458 125.595 175.236 123.403 175.236C121.21 175.236 119.433 173.458 119.433 171.266C119.433 169.074 121.21 167.296 123.403 167.296C125.595 167.296 127.373 169.074 127.373 171.266Z" fill="#B8FF01"/>
<path d="M151.191 171.266C151.191 173.458 149.413 175.236 147.221 175.236C145.029 175.236 143.251 173.458 143.251 171.266C143.251 169.074 145.029 167.296 147.221 167.296C149.413 167.296 151.191 169.074 151.191 171.266Z" fill="#B8FF01"/>
<path d="M175.009 171.266C175.009 173.458 173.232 175.236 171.039 175.236C168.847 175.236 167.07 173.458 167.07 171.266C167.07 169.074 168.847 167.296 171.039 167.296C173.232 167.296 175.009 169.074 175.009 171.266Z" fill="#B8FF01"/>
<path d="M198.827 171.266C198.827 173.458 197.05 175.236 194.858 175.236C192.665 175.236 190.888 173.458 190.888 171.266C190.888 169.074 192.665 167.296 194.858 167.296C197.05 167.296 198.827 169.074 198.827 171.266Z" fill="#B8FF01"/>
<path d="M55.9177 195.084C55.9177 197.277 54.1404 199.054 51.948 199.054C49.7556 199.054 47.9783 197.277 47.9783 195.084C47.9783 192.892 49.7556 191.115 51.948 191.115C54.1404 191.115 55.9177 192.892 55.9177 195.084Z" fill="#B8FF01"/>
<path d="M79.736 195.084C79.736 197.277 77.9587 199.054 75.7663 199.054C73.5739 199.054 71.7966 197.277 71.7966 195.084C71.7966 192.892 73.5739 191.115 75.7663 191.115C77.9587 191.115 79.736 192.892 79.736 195.084Z" fill="#B8FF01"/>
<path d="M103.554 195.084C103.554 197.277 101.777 199.054 99.5845 199.054C97.3921 199.054 95.6148 197.277 95.6148 195.084C95.6148 192.892 97.3921 191.115 99.5845 191.115C101.777 191.115 103.554 192.892 103.554 195.084Z" fill="#B8FF01"/>
<path d="M127.373 195.084C127.373 197.277 125.595 199.054 123.403 199.054C121.21 199.054 119.433 197.277 119.433 195.084C119.433 192.892 121.21 191.115 123.403 191.115C125.595 191.115 127.373 192.892 127.373 195.084Z" fill="#B8FF01"/>
<path d="M151.191 195.084C151.191 197.277 149.413 199.054 147.221 199.054C145.029 199.054 143.251 197.277 143.251 195.084C143.251 192.892 145.029 191.115 147.221 191.115C149.413 191.115 151.191 192.892 151.191 195.084Z" fill="#B8FF01"/>
<path d="M175.009 195.084C175.009 197.277 173.232 199.054 171.039 199.054C168.847 199.054 167.07 197.277 167.07 195.084C167.07 192.892 168.847 191.115 171.039 191.115C173.232 191.115 175.009 192.892 175.009 195.084Z" fill="#B8FF01"/>
<path d="M79.736 218.903C79.736 221.095 77.9587 222.872 75.7663 222.872C73.5739 222.872 71.7966 221.095 71.7966 218.903C71.7966 216.71 73.5739 214.933 75.7663 214.933C77.9587 214.933 79.736 216.71 79.736 218.903Z" fill="#B8FF01"/>
<path d="M103.554 218.903C103.554 221.095 101.777 222.872 99.5845 222.872C97.3921 222.872 95.6148 221.095 95.6148 218.903C95.6148 216.71 97.3921 214.933 99.5845 214.933C101.777 214.933 103.554 216.71 103.554 218.903Z" fill="#B8FF01"/>
<path d="M127.373 218.903C127.373 221.095 125.595 222.872 123.403 222.872C121.21 222.872 119.433 221.095 119.433 218.903C119.433 216.71 121.21 214.933 123.403 214.933C125.595 214.933 127.373 216.71 127.373 218.903Z" fill="#B8FF01"/>
<path d="M151.191 218.903C151.191 221.095 149.413 222.872 147.221 222.872C145.029 222.872 143.251 221.095 143.251 218.903C143.251 216.71 145.029 214.933 147.221 214.933C149.413 214.933 151.191 216.71 151.191 218.903Z" fill="#B8FF01"/>
</svg>
