<svg width="211" height="23" viewBox="0 0 211 23" fill="none" xmlns="http://www.w3.org/2000/svg">
<path fill-rule="evenodd" clip-rule="evenodd" d="M0.571158 19.5273C-0.1523 20.2507 -0.1523 21.4237 0.571158 22.1472C1.29462 22.8706 2.46757 22.8706 3.19103 22.1472L21.5302 3.80804C22.2536 3.08458 22.2536 1.91162 21.5302 1.18816C20.8067 0.464704 19.6337 0.464705 18.9103 1.18816L0.571158 19.5273ZM21.5301 19.5273C20.8066 20.2507 20.8066 21.4237 21.5301 22.1472C22.2535 22.8706 23.4265 22.8706 24.15 22.1472L42.4891 3.80804C43.2125 3.08458 43.2125 1.91162 42.4891 1.18816C41.7656 0.464704 40.5927 0.464705 39.8692 1.18816L21.5301 19.5273ZM42.489 22.1472C41.7656 21.4237 41.7656 20.2507 42.489 19.5273L60.8281 1.18816C61.5516 0.464705 62.7246 0.464704 63.448 1.18816C64.1715 1.91162 64.1715 3.08458 63.448 3.80804L45.1089 22.1472C44.3854 22.8706 43.2125 22.8706 42.489 22.1472ZM63.4479 19.5273C62.7245 20.2507 62.7245 21.4237 63.4479 22.1472C64.1714 22.8706 65.3444 22.8706 66.0678 22.1472L84.407 3.80804C85.1304 3.08458 85.1304 1.91162 84.407 1.18816C83.6835 0.464704 82.5105 0.464705 81.7871 1.18816L63.4479 19.5273ZM84.4069 22.1472C83.6834 21.4237 83.6834 20.2507 84.4069 19.5273L102.746 1.18816C103.469 0.464705 104.642 0.464704 105.366 1.18816C106.089 1.91162 106.089 3.08458 105.366 3.80804L87.0268 22.1472C86.3033 22.8706 85.1303 22.8706 84.4069 22.1472ZM105.366 19.5273C104.642 20.2507 104.642 21.4237 105.366 22.1472C106.089 22.8706 107.262 22.8706 107.986 22.1472L126.325 3.80804C127.048 3.08458 127.048 1.91162 126.325 1.18816C125.601 0.464704 124.428 0.464705 123.705 1.18816L105.366 19.5273ZM126.325 22.1472C125.601 21.4237 125.601 20.2507 126.325 19.5273L144.664 1.18816C145.387 0.464705 146.56 0.464704 147.284 1.18816C148.007 1.91162 148.007 3.08458 147.284 3.80804L128.945 22.1472C128.221 22.8706 127.048 22.8706 126.325 22.1472ZM147.284 19.5273C146.56 20.2507 146.56 21.4237 147.284 22.1472C148.007 22.8706 149.18 22.8706 149.904 22.1472L168.243 3.80804C168.966 3.08458 168.966 1.91162 168.243 1.18816C167.519 0.464704 166.346 0.464705 165.623 1.18816L147.284 19.5273ZM168.243 22.1472C167.519 21.4237 167.519 20.2507 168.243 19.5273L186.582 1.18816C187.305 0.464705 188.478 0.464704 189.202 1.18816C189.925 1.91162 189.925 3.08458 189.202 3.80804L170.862 22.1472C170.139 22.8706 168.966 22.8706 168.243 22.1472ZM189.202 19.5273C188.478 20.2507 188.478 21.4237 189.202 22.1472C189.925 22.8706 191.098 22.8706 191.821 22.1472L210.161 3.80804C210.884 3.08458 210.884 1.91162 210.161 1.18816C209.437 0.464704 208.264 0.464705 207.541 1.18816L189.202 19.5273Z" fill="#B8FF01"/>
</svg>
