<svg width="76" height="76" viewBox="0 0 76 76" fill="none" xmlns="http://www.w3.org/2000/svg">
<path d="M14.2498 34.8332H61.7498M14.2498 34.8332C10.752 34.8332 7.9165 37.6686 7.9165 41.1665V53.8332H11.6769M14.2498 34.8332L20.1233 17.0169C20.9793 14.4206 23.4045 12.6665 26.1382 12.6665H49.8615C52.5953 12.6665 55.0204 14.4206 55.8763 17.0169L61.7498 34.8332M61.7498 34.8332C65.2477 34.8332 68.0832 37.6686 68.0832 41.1665V53.8332H64.3228M11.6769 53.8332V58.8802C11.6769 60.4651 12.9618 61.7498 14.5467 61.7498C16.1317 61.7498 17.4165 60.4651 17.4165 58.8802V53.8332M11.6769 53.8332H17.4165M64.3228 53.8332V58.8802C64.3228 60.4651 63.038 61.7498 61.4528 61.7498C59.8679 61.7498 58.5832 60.4651 58.5832 58.8802V53.8332M64.3228 53.8332H58.5832M58.5832 53.8332H17.4165M22.1665 44.3332C22.1665 45.2075 21.4576 45.9165 20.5832 45.9165C19.7087 45.9165 18.9998 45.2075 18.9998 44.3332C18.9998 43.4589 19.7087 42.7498 20.5832 42.7498C21.4576 42.7498 22.1665 43.4589 22.1665 44.3332ZM56.9998 44.3332C56.9998 45.2075 56.2908 45.9165 55.4165 45.9165C54.5422 45.9165 53.8332 45.2075 53.8332 44.3332C53.8332 43.4589 54.5422 42.7498 55.4165 42.7498C56.2908 42.7498 56.9998 43.4589 56.9998 44.3332Z" stroke="#1C1C1C" stroke-width="3.95833" stroke-linecap="round"/>
</svg>
