<svg width="126" height="18" viewBox="0 0 126 18" fill="none" xmlns="http://www.w3.org/2000/svg">
<path d="M18.1206 0V17.372H13.9727V0H18.1206Z" fill="black"/>
<path d="M26.8426 17.618C25.4741 17.618 24.2979 17.3381 23.3139 16.7782C22.3356 16.2127 21.5807 15.4267 21.0491 14.4201C20.5232 13.4079 20.2603 12.2345 20.2603 10.8999C20.2603 9.55969 20.5232 8.38629 21.0491 7.37971C21.5807 6.36747 22.3356 5.58143 23.3139 5.02159C24.2979 4.4561 25.4741 4.17335 26.8426 4.17335C28.2111 4.17335 29.3845 4.4561 30.3628 5.02159C31.3468 5.58143 32.1017 6.36747 32.6276 7.37971C33.1592 8.38629 33.425 9.55969 33.425 10.8999C33.425 12.2345 33.1592 13.4079 32.6276 14.4201C32.1017 15.4267 31.3468 16.2127 30.3628 16.7782C29.3845 17.3381 28.2111 17.618 26.8426 17.618ZM26.8681 14.488C27.3657 14.488 27.787 14.3353 28.1319 14.0299C28.4769 13.7246 28.7399 13.3004 28.9208 12.7576C29.1074 12.2147 29.2007 11.587 29.2007 10.8745C29.2007 10.1506 29.1074 9.51728 28.9208 8.9744C28.7399 8.43153 28.4769 8.00741 28.1319 7.70204C27.787 7.39667 27.3657 7.24399 26.8681 7.24399C26.3535 7.24399 25.918 7.39667 25.5618 7.70204C25.2112 8.00741 24.9426 8.43153 24.7559 8.9744C24.575 9.51728 24.4845 10.1506 24.4845 10.8745C24.4845 11.587 24.575 12.2147 24.7559 12.7576C24.9426 13.3004 25.2112 13.7246 25.5618 14.0299C25.918 14.3353 26.3535 14.488 26.8681 14.488Z" fill="black"/>
<path d="M37.7044 17.372L34.3114 4.343H38.4763L40.2321 12.6897H40.3424L42.2255 4.343H46.2886L48.2226 12.6303H48.3328L50.0378 4.343H54.2027L50.8012 17.372H46.3649L44.3291 9.78023H44.1849L42.1492 17.372H37.7044Z" fill="black"/>
<path d="M54.086 3.40993V0H68.7691V3.40993H63.5015V17.372H59.3621V3.40993H54.086Z" fill="black"/>
<path d="M69.4668 17.372V4.343H73.4959V6.71808H73.6317C73.8692 5.85853 74.2565 5.21952 74.7937 4.80105C75.331 4.37693 75.9558 4.16487 76.6684 4.16487C76.8606 4.16487 77.0586 4.17901 77.2621 4.20728C77.4657 4.2299 77.6552 4.26666 77.8305 4.31755V7.92258C77.6325 7.85472 77.3724 7.801 77.0501 7.76142C76.7334 7.72183 76.4506 7.70204 76.2018 7.70204C75.7098 7.70204 75.2659 7.81231 74.8701 8.03285C74.4799 8.24774 74.1717 8.55028 73.9455 8.94047C73.725 9.32501 73.6147 9.7774 73.6147 10.2977V17.372H69.4668Z" fill="black"/>
<path d="M82.7036 17.5925C81.8723 17.5925 81.1344 17.454 80.4897 17.1769C79.8507 16.8942 79.3446 16.47 78.9713 15.9045C78.6038 15.3334 78.42 14.618 78.42 13.7585C78.42 13.0347 78.5472 12.4239 78.8017 11.9263C79.0562 11.4286 79.4068 11.0243 79.8535 10.7133C80.3002 10.4023 80.8149 10.1676 81.3973 10.0093C81.9798 9.84526 82.6018 9.73499 83.2634 9.67844C84.0042 9.61058 84.6008 9.5399 85.0532 9.46638C85.5056 9.38721 85.8336 9.27694 86.0372 9.13557C86.2464 8.98854 86.351 8.78213 86.351 8.51635V8.47394C86.351 8.03851 86.2012 7.70204 85.9015 7.46453C85.6018 7.22702 85.1974 7.10827 84.6885 7.10827C84.14 7.10827 83.6989 7.22702 83.3652 7.46453C83.0316 7.70204 82.8195 8.03003 82.729 8.44849L78.9035 8.31277C79.0166 7.52108 79.3078 6.81421 79.7772 6.19217C80.2522 5.56447 80.9025 5.07249 81.7281 4.71623C82.5594 4.35431 83.5575 4.17335 84.7224 4.17335C85.5537 4.17335 86.3199 4.27231 87.0212 4.47024C87.7224 4.6625 88.3331 4.94525 88.8534 5.31848C89.3736 5.68605 89.7751 6.13844 90.0579 6.67566C90.3463 7.21288 90.4905 7.82645 90.4905 8.51635V17.372H86.5886V15.5568H86.4868C86.2549 15.9978 85.958 16.3711 85.5961 16.6764C85.2398 16.9818 84.8186 17.2108 84.3322 17.3635C83.8516 17.5162 83.3087 17.5925 82.7036 17.5925ZM83.9845 14.8782C84.4312 14.8782 84.8327 14.7877 85.189 14.6067C85.5509 14.4258 85.8393 14.177 86.0542 13.8603C86.2691 13.5379 86.3765 13.1647 86.3765 12.7406V11.5022C86.2577 11.5644 86.1135 11.6209 85.9439 11.6718C85.7799 11.7227 85.5989 11.7708 85.401 11.816C85.2031 11.8613 84.9995 11.9008 84.7903 11.9348C84.581 11.9687 84.3803 11.9998 84.188 12.0281C83.7978 12.0903 83.4642 12.1864 83.1871 12.3165C82.9157 12.4465 82.7064 12.6162 82.5594 12.8254C82.418 13.029 82.3473 13.2722 82.3473 13.5549C82.3473 13.9847 82.5 14.3127 82.8054 14.5389C83.1164 14.7651 83.5094 14.8782 83.9845 14.8782Z" fill="black"/>
<path d="M99.1086 17.618C97.7345 17.618 96.5554 17.3352 95.5714 16.7697C94.5931 16.2043 93.841 15.4182 93.3151 14.4116C92.7892 13.3994 92.5262 12.2288 92.5262 10.8999C92.5262 9.56534 92.7892 8.39477 93.3151 7.38819C93.8467 6.37595 94.6016 5.58709 95.5799 5.02159C96.5639 4.4561 97.7373 4.17335 99.1001 4.17335C100.305 4.17335 101.354 4.39107 102.247 4.8265C103.146 5.26193 103.847 5.87832 104.351 6.67566C104.86 7.46736 105.128 8.3976 105.157 9.46638H101.28C101.201 8.7991 100.975 8.27602 100.602 7.89713C100.234 7.51825 99.7533 7.32881 99.1595 7.32881C98.6788 7.32881 98.2575 7.46453 97.8956 7.73597C97.5337 8.00175 97.251 8.3976 97.0474 8.92351C96.8495 9.44376 96.7505 10.0884 96.7505 10.8575C96.7505 11.6266 96.8495 12.2769 97.0474 12.8085C97.251 13.3344 97.5337 13.733 97.8956 14.0045C98.2575 14.2703 98.6788 14.4032 99.1595 14.4032C99.544 14.4032 99.8833 14.3212 100.177 14.1572C100.477 13.9932 100.723 13.7528 100.915 13.4362C101.108 13.1138 101.229 12.7236 101.28 12.2656H105.157C105.117 13.34 104.848 14.2787 104.351 15.0817C103.859 15.8847 103.166 16.5096 102.273 16.9564C101.385 17.3974 100.33 17.618 99.1086 17.618Z" fill="black"/>
<path d="M111.02 13.9536L111.037 9.00833H111.614L115.278 4.343H119.977L114.532 11.0271H113.438L111.02 13.9536ZM107.279 17.372V0H111.427V17.372H107.279ZM115.372 17.372L111.962 11.9602L114.693 9.01681L120.164 17.372H115.372Z" fill="black"/>
<path d="M123.795 17.618C123.184 17.618 122.661 17.4031 122.225 16.9733C121.796 16.5435 121.583 16.0233 121.589 15.4126C121.583 14.8131 121.796 14.3014 122.225 13.8772C122.661 13.4475 123.184 13.2326 123.795 13.2326C124.371 13.2326 124.88 13.4475 125.321 13.8772C125.768 14.3014 125.994 14.8131 126 15.4126C125.994 15.8197 125.887 16.1901 125.678 16.5238C125.474 16.8574 125.205 17.1232 124.872 17.3211C124.544 17.519 124.185 17.618 123.795 17.618Z" fill="black"/>
<path d="M0 6.97255H11.1035V10.391H4.1988V17.372H0V14.5389V6.97255Z" fill="black"/>
<path d="M0 0H11.8584V3.40993H0V0Z" fill="black"/>
</svg>
