<svg width="528" height="403" viewBox="0 0 528 403" fill="none" xmlns="http://www.w3.org/2000/svg">
<path d="M-50 231.377L37.5886 248.703C41.7158 249.519 45.9126 247.665 48.0882 244.064L128.827 110.431C129.923 108.616 131.568 107.196 133.524 106.377L194 81.0625" stroke="#747474"/>
<path d="M151.5 253.062L83 426.062" stroke="#B8FF00" stroke-opacity="0.4" stroke-width="4"/>
<path d="M174 382.062L272.184 309.038C273.909 307.755 276.002 307.062 278.152 307.062H327" stroke="#747474" stroke-width="0.5"/>
<path d="M41 244.063L32 41.0625" stroke="#747474" stroke-width="0.5"/>
<path d="M-3 33.0625L225.374 85.8576C230.709 87.0909 234.06 92.3852 232.892 97.7346L154.623 456.062" stroke="#747474" stroke-width="1.5"/>
<path d="M266.023 438.062L269.494 394.085M-28 123.062L277.264 183.216C282.244 184.197 285.699 188.754 285.299 193.814L269.494 394.085M164.088 412.494L269.494 394.085" stroke="#747474" stroke-width="1.5"/>
<path d="M110 338.562L67.5 410.062" stroke="#747474" stroke-width="0.5"/>
<path d="M146 329.062L90.5 430.062M185 317.562L120 446.562" stroke="#747474" stroke-width="0.5"/>
<path d="M-15 77.0625L90.4784 93.9142C96.331 94.8492 100.091 100.641 98.5627 106.367L36.1482 340.28C34.1608 347.728 40.9929 354.53 48.4321 352.508L324 277.637" stroke="#747474" stroke-width="1.5"/>
<path d="M359 417.062V131.063C359 125.54 354.523 121.062 349 121.062H190" stroke="#747474" stroke-width="1.5"/>
<path d="M210.5 202.062H284.5" stroke="#747474" stroke-width="0.5"/>
<path d="M205 233.062L283 218.062" stroke="#747474" stroke-width="0.5"/>
<path d="M257 224.062L247 299.062" stroke="#747474" stroke-width="0.5"/>
<path d="M72 205.062L162 322.062" stroke="#747474" stroke-width="0.5"/>
<path d="M307 121.062L327.856 317.237M339 422.062L327.856 317.237M275 347.187L327.856 317.237" stroke="#747474" stroke-width="0.5"/>
<path d="M-42 175.062L72 205.062" stroke="#747474" stroke-width="0.5"/>
<path d="M212.161 318.461C212.228 318.735 212.219 318.999 212.132 319.25C212.044 319.497 211.897 319.712 211.689 319.895C211.485 320.071 211.243 320.194 210.964 320.262L208.361 320.902L207.006 315.386L209.663 314.733C209.922 314.669 210.162 314.685 210.383 314.779C210.608 314.866 210.796 315.007 210.948 315.2C211.104 315.387 211.21 315.597 211.267 315.83C211.335 316.104 211.327 316.375 211.245 316.643C211.162 316.91 211.01 317.131 210.79 317.306C211.129 317.322 211.42 317.435 211.663 317.644C211.912 317.852 212.078 318.124 212.161 318.461ZM211.594 318.501C211.548 318.315 211.465 318.154 211.344 318.019C211.221 317.879 211.076 317.777 210.906 317.714C210.742 317.65 210.57 317.641 210.388 317.685L208.275 318.204L208.789 320.294L210.847 319.788C211.034 319.743 211.19 319.652 211.316 319.517C211.442 319.381 211.53 319.225 211.58 319.048C211.634 318.865 211.638 318.682 211.594 318.501ZM207.667 315.726L208.166 317.761L210.062 317.296C210.243 317.251 210.393 317.165 210.509 317.038C210.625 316.905 210.705 316.751 210.75 316.575C210.795 316.399 210.795 316.223 210.752 316.047C210.706 315.861 210.626 315.702 210.512 315.571C210.396 315.434 210.259 315.336 210.102 315.276C209.944 315.216 209.78 315.207 209.609 315.249L207.667 315.726ZM215.194 319.306C214.904 319.377 214.621 319.389 214.346 319.341C214.069 319.288 213.817 319.188 213.588 319.041C213.359 318.889 213.161 318.698 212.995 318.47C212.834 318.24 212.718 317.981 212.647 317.691C212.554 317.312 212.554 316.944 212.648 316.587C212.746 316.227 212.925 315.917 213.185 315.655C213.444 315.389 213.767 315.208 214.156 315.112C214.554 315.014 214.925 315.025 215.267 315.144C215.615 315.262 215.913 315.458 216.161 315.732C216.409 316.001 216.578 316.321 216.67 316.694C216.68 316.736 216.69 316.777 216.7 316.819C216.709 316.855 216.713 316.884 216.713 316.906L213.248 317.757C213.345 318.041 213.489 318.28 213.68 318.475C213.874 318.663 214.097 318.798 214.348 318.879C214.602 318.954 214.859 318.96 215.118 318.896C215.382 318.831 215.614 318.703 215.814 318.511C216.019 318.318 216.142 318.101 216.182 317.86L216.671 317.872C216.635 318.084 216.55 318.289 216.418 318.486C216.285 318.683 216.113 318.855 215.901 319C215.694 319.139 215.458 319.241 215.194 319.306ZM213.139 317.38L216.13 316.646C216.037 316.355 215.893 316.116 215.699 315.928C215.509 315.738 215.288 315.609 215.035 315.539C214.785 315.463 214.529 315.457 214.265 315.522C214 315.587 213.775 315.711 213.59 315.894C213.403 316.072 213.267 316.292 213.183 316.554C213.103 316.81 213.089 317.085 213.139 317.38ZM219.987 318.128C219.671 318.206 219.358 318.198 219.05 318.103C218.74 318.004 218.479 317.848 218.268 317.636L218.46 318.421L217.986 318.537L216.593 312.866L217.122 312.736L217.729 315.207C217.842 314.888 218.006 314.614 218.219 314.386C218.431 314.153 218.705 313.995 219.042 313.912C219.327 313.842 219.595 313.839 219.847 313.904C220.104 313.967 220.338 314.08 220.548 314.242C220.757 314.4 220.934 314.595 221.079 314.829C221.223 315.057 221.327 315.303 221.392 315.567C221.462 315.852 221.479 316.131 221.441 316.404C221.409 316.675 221.329 316.931 221.201 317.171C221.072 317.406 220.905 317.609 220.7 317.78C220.499 317.945 220.261 318.061 219.987 318.128ZM219.748 317.693C219.965 317.639 220.157 317.546 220.321 317.412C220.486 317.278 220.617 317.117 220.713 316.928C220.81 316.74 220.871 316.541 220.896 316.332C220.921 316.117 220.907 315.906 220.856 315.699C220.786 315.414 220.659 315.163 220.473 314.945C220.292 314.72 220.074 314.559 219.819 314.463C219.569 314.359 219.299 314.343 219.009 314.415C218.801 314.465 218.619 314.56 218.46 314.698C218.307 314.834 218.18 314.997 218.078 315.187C217.98 315.37 217.91 315.563 217.866 315.766L218.175 317.025C218.23 317.159 218.317 317.278 218.436 317.381C218.553 317.478 218.687 317.555 218.838 317.612C218.995 317.666 219.152 317.702 219.309 317.718C219.467 317.734 219.613 317.726 219.748 317.693ZM222.169 316.274C222.107 316.021 222.126 315.785 222.226 315.568C222.325 315.346 222.49 315.155 222.719 314.994C222.953 314.827 223.238 314.702 223.575 314.619C223.772 314.571 223.98 314.536 224.2 314.515C224.42 314.494 224.62 314.494 224.801 314.516L224.717 314.174C224.634 313.832 224.466 313.585 224.214 313.433C223.963 313.28 223.658 313.248 223.301 313.336C223.083 313.389 222.878 313.483 222.686 313.618C222.498 313.747 222.309 313.917 222.12 314.128L221.826 313.805C222.046 313.559 222.272 313.361 222.504 313.21C222.735 313.055 222.982 312.944 223.246 312.879C223.743 312.757 224.172 312.803 224.532 313.017C224.892 313.23 225.134 313.588 225.257 314.091L225.717 315.963C225.735 316.036 225.764 316.086 225.804 316.115C225.842 316.138 225.896 316.144 225.965 316.133L226.068 316.552C226.012 316.572 225.964 316.589 225.924 316.604C225.884 316.62 225.853 316.627 225.831 316.627C225.7 316.654 225.591 316.637 225.505 316.575C225.419 316.514 225.362 316.44 225.335 316.353L225.255 316.06C225.131 316.338 224.94 316.577 224.681 316.778C224.422 316.973 224.142 317.108 223.842 317.182C223.583 317.245 223.334 317.249 223.095 317.192C222.859 317.129 222.659 317.019 222.494 316.862C222.333 316.698 222.225 316.502 222.169 316.274ZM224.957 315.919C224.996 315.833 225.023 315.752 225.037 315.677C225.052 315.602 225.053 315.539 225.04 315.487L224.895 314.896C224.702 314.872 224.506 314.866 224.305 314.877C224.11 314.886 223.916 314.914 223.725 314.961C223.347 315.054 223.059 315.204 222.863 315.412C222.667 315.619 222.601 315.853 222.664 316.112C222.701 316.262 222.775 316.395 222.886 316.51C222.995 316.621 223.136 316.701 223.308 316.753C223.478 316.799 223.665 316.797 223.867 316.747C224.12 316.685 224.344 316.578 224.537 316.426C224.736 316.273 224.876 316.104 224.957 315.919ZM228.363 316.071C228.031 316.153 227.71 316.174 227.398 316.135C227.086 316.096 226.8 315.991 226.538 315.819L226.664 315.393C226.944 315.549 227.21 315.649 227.462 315.691C227.718 315.727 227.975 315.713 228.234 315.65C228.55 315.572 228.791 315.447 228.958 315.274C229.123 315.096 229.176 314.888 229.117 314.65C229.078 314.49 228.999 314.38 228.88 314.321C228.765 314.256 228.611 314.22 228.417 314.213C228.227 314.199 228 314.191 227.736 314.19C227.437 314.181 227.182 314.159 226.97 314.123C226.762 314.081 226.593 314.007 226.462 313.902C226.336 313.79 226.247 313.628 226.195 313.416C226.13 313.152 226.141 312.918 226.229 312.715C226.32 312.506 226.469 312.33 226.675 312.186C226.885 312.035 227.133 311.925 227.418 311.855C227.728 311.779 228.015 311.76 228.277 311.8C228.54 311.84 228.768 311.93 228.961 312.069L228.793 312.489C228.607 312.359 228.403 312.28 228.182 312.252C227.965 312.217 227.735 312.23 227.492 312.29C227.326 312.331 227.174 312.393 227.035 312.476C226.895 312.554 226.788 312.658 226.715 312.785C226.646 312.907 226.633 313.055 226.677 313.231C226.712 313.376 226.776 313.481 226.869 313.547C226.961 313.606 227.086 313.647 227.245 313.668C227.403 313.685 227.596 313.698 227.823 313.708C228.149 313.715 228.437 313.735 228.686 313.767C228.935 313.794 229.138 313.86 229.295 313.964C229.452 314.068 229.561 314.242 229.621 314.485C229.714 314.863 229.644 315.194 229.411 315.476C229.178 315.758 228.829 315.957 228.363 316.071ZM234.983 309.61C234.883 309.541 234.774 309.485 234.654 309.443C234.532 309.396 234.4 309.363 234.258 309.343C234.116 309.323 233.966 309.316 233.808 309.321C233.655 309.326 233.496 309.349 233.33 309.389C232.849 309.508 232.517 309.688 232.335 309.93C232.157 310.166 232.106 310.442 232.184 310.758C232.237 310.976 232.331 311.134 232.465 311.233C232.605 311.331 232.798 311.39 233.045 311.412C233.292 311.434 233.601 311.443 233.974 311.439C234.388 311.425 234.751 311.44 235.064 311.484C235.377 311.528 235.635 311.63 235.839 311.788C236.042 311.942 236.183 312.184 236.265 312.516C236.327 312.769 236.332 313.002 236.279 313.212C236.227 313.423 236.128 313.612 235.982 313.78C235.837 313.947 235.65 314.092 235.422 314.214C235.192 314.331 234.932 314.425 234.642 314.496C234.357 314.566 234.076 314.605 233.798 314.613C233.524 314.614 233.256 314.586 232.995 314.53C232.733 314.468 232.478 314.371 232.232 314.239L232.395 313.73C232.519 313.809 232.659 313.879 232.817 313.939C232.978 313.993 233.151 314.036 233.334 314.067C233.523 314.098 233.718 314.11 233.92 314.105C234.126 314.093 234.332 314.061 234.54 314.01C234.98 313.902 235.302 313.738 235.506 313.518C235.715 313.296 235.781 313.027 235.703 312.711C235.647 312.483 235.541 312.317 235.383 312.213C235.225 312.104 235.01 312.036 234.74 312.009C234.47 311.982 234.143 311.971 233.76 311.978C233.355 311.984 233.007 311.965 232.717 311.921C232.426 311.877 232.191 311.784 232.013 311.641C231.839 311.491 231.716 311.269 231.644 310.973C231.56 310.632 231.572 310.324 231.68 310.05C231.793 309.77 231.982 309.534 232.248 309.342C232.513 309.145 232.837 309 233.22 308.906C233.463 308.846 233.695 308.817 233.915 308.817C234.139 308.812 234.35 308.834 234.549 308.884C234.753 308.933 234.95 309.008 235.14 309.11L234.983 309.61ZM239.296 313.097C239.259 313.123 239.201 313.168 239.123 313.231C239.045 313.294 238.948 313.356 238.831 313.418C238.714 313.479 238.584 313.528 238.439 313.563C238.288 313.6 238.139 313.607 237.99 313.583C237.847 313.558 237.722 313.498 237.617 313.403C237.51 313.303 237.435 313.167 237.393 312.996L236.681 310.099L236.122 310.236L236.019 309.816L236.578 309.679L236.243 308.312L236.771 308.182L237.107 309.549L238.039 309.32L238.142 309.74L237.21 309.969L237.885 312.719C237.931 312.862 238.01 312.958 238.121 313.007C238.237 313.056 238.357 313.064 238.482 313.034C238.627 312.998 238.753 312.943 238.861 312.867C238.967 312.786 239.031 312.732 239.051 312.704L239.296 313.097ZM241.144 309.052C240.795 309.149 240.508 309.323 240.284 309.576C240.066 309.827 239.943 310.13 239.914 310.483L240.532 313L240.004 313.13L239.01 309.082L239.507 308.96L239.746 309.931C239.815 309.612 239.943 309.336 240.127 309.104C240.317 308.871 240.539 308.712 240.793 308.627C240.843 308.609 240.887 308.596 240.923 308.587C240.964 308.577 240.999 308.571 241.026 308.57L241.144 309.052ZM244.366 312.141C244.076 312.212 243.793 312.224 243.518 312.176C243.241 312.123 242.989 312.023 242.76 311.876C242.531 311.724 242.333 311.533 242.167 311.305C242.006 311.075 241.89 310.815 241.819 310.525C241.726 310.147 241.726 309.779 241.82 309.421C241.918 309.062 242.097 308.752 242.357 308.49C242.616 308.224 242.939 308.043 243.328 307.947C243.726 307.849 244.097 307.86 244.439 307.979C244.787 308.097 245.085 308.293 245.333 308.567C245.581 308.835 245.75 309.156 245.842 309.529C245.852 309.571 245.862 309.612 245.872 309.653C245.881 309.69 245.885 309.719 245.885 309.741L242.42 310.592C242.517 310.876 242.661 311.115 242.852 311.31C243.046 311.498 243.269 311.633 243.52 311.714C243.774 311.789 244.031 311.794 244.29 311.731C244.554 311.666 244.786 311.538 244.986 311.346C245.191 311.152 245.314 310.936 245.354 310.695L245.843 310.707C245.807 310.919 245.722 311.124 245.59 311.321C245.457 311.518 245.285 311.69 245.073 311.835C244.866 311.974 244.63 312.076 244.366 312.141ZM242.311 310.215L245.302 309.48C245.209 309.19 245.065 308.951 244.871 308.763C244.681 308.573 244.46 308.443 244.207 308.374C243.957 308.298 243.701 308.292 243.437 308.357C243.172 308.422 242.947 308.546 242.762 308.729C242.575 308.906 242.439 309.126 242.355 309.389C242.275 309.644 242.261 309.92 242.311 310.215ZM248.926 311.021C248.636 311.092 248.353 311.104 248.078 311.056C247.801 311.003 247.548 310.903 247.32 310.756C247.091 310.604 246.893 310.413 246.727 310.185C246.566 309.955 246.45 309.695 246.379 309.405C246.286 309.027 246.286 308.659 246.38 308.301C246.478 307.942 246.657 307.632 246.917 307.37C247.175 307.104 247.499 306.923 247.887 306.827C248.286 306.729 248.657 306.74 248.999 306.859C249.347 306.977 249.645 307.173 249.893 307.447C250.14 307.715 250.31 308.036 250.401 308.409C250.412 308.451 250.422 308.492 250.432 308.533C250.441 308.57 250.445 308.599 250.445 308.621L246.98 309.472C247.077 309.756 247.221 309.995 247.412 310.19C247.606 310.378 247.829 310.513 248.079 310.594C248.334 310.669 248.591 310.674 248.85 310.611C249.114 310.546 249.346 310.418 249.546 310.226C249.751 310.032 249.874 309.816 249.913 309.575L250.402 309.587C250.366 309.799 250.282 310.004 250.149 310.201C250.017 310.398 249.845 310.57 249.633 310.715C249.426 310.854 249.19 310.956 248.926 311.021ZM246.871 309.095L249.862 308.36C249.769 308.07 249.625 307.831 249.43 307.643C249.241 307.453 249.02 307.323 248.767 307.254C248.517 307.178 248.26 307.172 247.996 307.237C247.732 307.302 247.507 307.426 247.321 307.609C247.134 307.786 246.999 308.006 246.915 308.269C246.835 308.524 246.821 308.8 246.871 309.095ZM253.575 309.59C253.537 309.616 253.48 309.66 253.402 309.723C253.324 309.787 253.227 309.849 253.11 309.91C252.993 309.972 252.862 310.021 252.717 310.056C252.567 310.093 252.418 310.1 252.269 310.076C252.126 310.051 252.001 309.991 251.895 309.896C251.788 309.796 251.714 309.66 251.672 309.489L250.96 306.591L250.401 306.729L250.298 306.309L250.857 306.172L250.521 304.805L251.05 304.675L251.385 306.042L252.318 305.813L252.421 306.233L251.488 306.462L252.164 309.212C252.21 309.354 252.288 309.45 252.399 309.5C252.516 309.548 252.636 309.557 252.76 309.527C252.905 309.491 253.032 309.435 253.139 309.36C253.246 309.278 253.309 309.224 253.33 309.197L253.575 309.59Z" fill="#747474"/>
<path d="M352.12 264.726C351.773 264.726 351.435 264.668 351.104 264.55C350.768 264.428 350.464 264.252 350.192 264.022C349.915 263.793 349.696 263.51 349.536 263.174C349.371 262.838 349.288 262.457 349.288 262.03C349.288 261.524 349.405 261.092 349.64 260.734C349.869 260.372 350.165 260.105 350.528 259.934L350.8 260.374C350.549 260.497 350.352 260.652 350.208 260.839C350.059 261.025 349.952 261.225 349.888 261.438C349.824 261.646 349.792 261.854 349.792 262.062C349.792 262.404 349.861 262.705 350 262.966C350.133 263.228 350.315 263.449 350.544 263.63C350.768 263.806 351.021 263.94 351.304 264.03C351.581 264.121 351.864 264.166 352.152 264.166C352.467 264.166 352.768 264.113 353.056 264.007C353.344 263.9 353.6 263.75 353.824 263.558C354.043 263.366 354.219 263.142 354.352 262.886C354.48 262.625 354.544 262.342 354.544 262.038C354.544 261.825 354.507 261.606 354.432 261.382C354.357 261.158 354.243 260.95 354.088 260.758C353.933 260.561 353.733 260.404 353.488 260.286L353.728 259.822C354.011 259.94 354.251 260.121 354.448 260.366C354.645 260.612 354.795 260.886 354.896 261.19C354.997 261.489 355.048 261.782 355.048 262.07C355.048 262.46 354.965 262.817 354.8 263.142C354.629 263.468 354.405 263.75 354.128 263.99C353.845 264.225 353.531 264.406 353.184 264.535C352.832 264.662 352.477 264.726 352.12 264.726ZM355 255.474V256.018H352.672C352.203 256.018 351.851 256.101 351.616 256.266C351.376 256.431 351.256 256.669 351.256 256.978C351.256 257.181 351.309 257.383 351.416 257.586C351.517 257.783 351.659 257.959 351.84 258.114C352.016 258.263 352.219 258.37 352.448 258.434H355V258.978H349.16V258.434H351.776C351.467 258.269 351.221 258.039 351.04 257.746C350.853 257.447 350.76 257.13 350.76 256.794C350.76 256.554 350.803 256.351 350.888 256.186C350.973 256.015 351.099 255.879 351.264 255.778C351.424 255.671 351.613 255.594 351.832 255.546C352.045 255.498 352.288 255.474 352.56 255.474H355ZM353.28 254.354H350.832V253.81H353.184C353.659 253.81 354.013 253.73 354.248 253.57C354.483 253.405 354.6 253.162 354.6 252.842C354.6 252.629 354.555 252.423 354.464 252.226C354.368 252.023 354.235 251.845 354.064 251.69C353.888 251.535 353.685 251.418 353.456 251.338H350.832V250.794H354.344C354.419 250.794 354.475 250.778 354.512 250.746C354.544 250.714 354.563 250.666 354.568 250.602H355C355.005 250.666 355.008 250.717 355.008 250.754C355.013 250.791 355.016 250.826 355.016 250.858C355.005 250.965 354.963 251.058 354.888 251.138C354.813 251.213 354.723 251.253 354.616 251.258L354.056 251.274C354.376 251.455 354.627 251.703 354.808 252.018C354.989 252.327 355.08 252.663 355.08 253.026C355.08 253.463 354.928 253.794 354.624 254.018C354.32 254.242 353.872 254.354 353.28 254.354ZM351.312 247.484C351.323 247.847 351.424 248.167 351.616 248.444C351.808 248.716 352.072 248.908 352.408 249.02H355V249.564H350.832V249.052H351.832C351.539 248.908 351.301 248.719 351.12 248.484C350.939 248.244 350.837 247.991 350.816 247.724C350.811 247.671 350.808 247.625 350.808 247.588C350.808 247.545 350.811 247.511 350.816 247.484H351.312ZM355.08 245.084C355.08 245.388 355.024 245.668 354.912 245.924C354.795 246.175 354.635 246.396 354.432 246.588C354.229 246.775 353.997 246.922 353.736 247.028C353.475 247.13 353.197 247.18 352.904 247.18C352.509 247.18 352.149 247.092 351.824 246.916C351.499 246.74 351.24 246.495 351.048 246.18C350.856 245.866 350.76 245.503 350.76 245.092C350.76 244.703 350.851 244.359 351.032 244.06C351.208 243.762 351.448 243.54 351.752 243.396L351.92 243.924C351.707 244.042 351.541 244.207 351.424 244.42C351.301 244.628 351.24 244.86 351.24 245.116C351.24 245.394 351.312 245.647 351.456 245.876C351.6 246.106 351.797 246.29 352.048 246.428C352.299 246.562 352.584 246.628 352.904 246.628C353.219 246.628 353.504 246.559 353.76 246.42C354.016 246.282 354.221 246.098 354.376 245.868C354.525 245.639 354.6 245.386 354.6 245.108C354.6 244.927 354.568 244.754 354.504 244.588C354.44 244.418 354.355 244.271 354.248 244.148C354.136 244.02 354.016 243.935 353.888 243.892L354.048 243.356C354.245 243.431 354.424 243.556 354.584 243.732C354.739 243.903 354.861 244.106 354.952 244.34C355.037 244.57 355.08 244.818 355.08 245.084ZM355 238.998V239.542H352.672C352.203 239.542 351.851 239.624 351.616 239.79C351.376 239.955 351.256 240.192 351.256 240.502C351.256 240.704 351.309 240.907 351.416 241.11C351.517 241.307 351.659 241.483 351.84 241.638C352.016 241.787 352.219 241.894 352.448 241.958H355V242.502H349.16V241.958H351.776C351.467 241.792 351.221 241.563 351.04 241.27C350.853 240.971 350.76 240.654 350.76 240.318C350.76 240.078 350.803 239.875 350.888 239.71C350.973 239.539 351.099 239.403 351.264 239.302C351.424 239.195 351.613 239.118 351.832 239.07C352.045 239.022 352.288 238.998 352.56 238.998H355ZM355.056 236.165C355.056 236.448 354.997 236.709 354.88 236.949C354.763 237.189 354.605 237.397 354.408 237.573C354.205 237.744 353.976 237.877 353.72 237.973C353.464 238.069 353.2 238.117 352.928 238.117C352.635 238.117 352.36 238.072 352.104 237.981C351.843 237.885 351.611 237.752 351.408 237.581C351.205 237.405 351.048 237.2 350.936 236.965C350.819 236.731 350.76 236.469 350.76 236.181C350.76 235.824 350.851 235.515 351.032 235.253C351.213 234.987 351.437 234.763 351.704 234.581H350.832V234.093H355.016C355.4 234.093 355.723 234.187 355.984 234.373C356.251 234.555 356.451 234.803 356.584 235.117C356.717 235.427 356.784 235.765 356.784 236.133C356.784 236.608 356.699 236.992 356.528 237.285C356.357 237.579 356.128 237.819 355.84 238.005L355.576 237.669C355.837 237.504 356.032 237.285 356.16 237.013C356.288 236.736 356.352 236.443 356.352 236.133C356.352 235.861 356.301 235.613 356.2 235.389C356.104 235.16 355.957 234.979 355.76 234.845C355.563 234.707 355.315 234.637 355.016 234.637H354.192C354.453 234.797 354.664 235.016 354.824 235.293C354.979 235.571 355.056 235.861 355.056 236.165ZM354.6 236.013C354.6 235.848 354.571 235.691 354.512 235.541C354.453 235.387 354.376 235.245 354.28 235.117C354.179 234.989 354.067 234.883 353.944 234.797C353.821 234.712 353.696 234.659 353.568 234.637H352.28C352.077 234.717 351.899 234.832 351.744 234.981C351.584 235.131 351.461 235.301 351.376 235.493C351.285 235.68 351.24 235.875 351.24 236.077C351.24 236.312 351.291 236.523 351.392 236.709C351.488 236.891 351.619 237.045 351.784 237.173C351.944 237.296 352.125 237.392 352.328 237.461C352.531 237.531 352.733 237.565 352.936 237.565C353.16 237.565 353.373 237.525 353.576 237.445C353.773 237.365 353.952 237.256 354.112 237.117C354.267 236.973 354.387 236.808 354.472 236.621C354.557 236.429 354.6 236.227 354.6 236.013ZM353.8 233.228C353.539 233.228 353.315 233.154 353.128 233.004C352.936 232.855 352.789 232.65 352.688 232.388C352.581 232.122 352.528 231.815 352.528 231.468C352.528 231.266 352.544 231.055 352.576 230.836C352.608 230.618 352.656 230.423 352.72 230.252H352.368C352.016 230.252 351.736 230.356 351.528 230.564C351.32 230.772 351.216 231.06 351.216 231.428C351.216 231.652 351.259 231.874 351.344 232.092C351.424 232.306 351.544 232.53 351.704 232.764L351.32 232.972C351.133 232.7 350.995 232.434 350.904 232.172C350.808 231.911 350.76 231.644 350.76 231.372C350.76 230.86 350.907 230.455 351.2 230.156C351.493 229.858 351.899 229.708 352.416 229.708H354.344C354.419 229.708 354.475 229.692 354.512 229.66C354.544 229.628 354.563 229.578 354.568 229.508H355C355.005 229.567 355.011 229.618 355.016 229.66C355.021 229.703 355.021 229.735 355.016 229.756C355.011 229.89 354.968 229.991 354.888 230.06C354.808 230.13 354.723 230.167 354.632 230.172L354.328 230.18C354.568 230.367 354.755 230.61 354.888 230.908C355.016 231.207 355.08 231.511 355.08 231.82C355.08 232.087 355.024 232.33 354.912 232.548C354.795 232.762 354.64 232.93 354.448 233.052C354.251 233.17 354.035 233.228 353.8 233.228ZM354.12 230.436C354.045 230.378 353.973 230.332 353.904 230.3C353.835 230.268 353.773 230.252 353.72 230.252H353.112C353.043 230.434 352.989 230.623 352.952 230.82C352.915 231.012 352.896 231.207 352.896 231.404C352.896 231.794 352.973 232.108 353.128 232.348C353.283 232.588 353.493 232.708 353.76 232.708C353.915 232.708 354.061 232.668 354.2 232.588C354.333 232.508 354.445 232.391 354.536 232.236C354.621 232.082 354.664 231.9 354.664 231.692C354.664 231.431 354.613 231.188 354.512 230.964C354.411 230.735 354.28 230.559 354.12 230.436ZM354.8 226.564C354.816 226.607 354.845 226.673 354.888 226.764C354.931 226.855 354.968 226.964 355 227.092C355.032 227.22 355.048 227.359 355.048 227.508C355.048 227.663 355.019 227.809 354.96 227.948C354.901 228.081 354.813 228.188 354.696 228.268C354.573 228.348 354.424 228.388 354.248 228.388H351.264V228.964H350.832V228.388H349.424V227.844H350.832V226.884H351.264V227.844H354.096C354.245 227.833 354.357 227.78 354.432 227.684C354.507 227.583 354.544 227.468 354.544 227.34C354.544 227.191 354.52 227.055 354.472 226.932C354.419 226.809 354.381 226.735 354.36 226.708L354.8 226.564ZM355.08 224.155C355.08 224.453 355.024 224.731 354.912 224.987C354.795 225.243 354.637 225.464 354.44 225.651C354.237 225.837 354.005 225.984 353.744 226.091C353.483 226.192 353.203 226.243 352.904 226.243C352.515 226.243 352.157 226.155 351.832 225.979C351.507 225.797 351.248 225.549 351.056 225.235C350.859 224.92 350.76 224.563 350.76 224.163C350.76 223.752 350.859 223.395 351.056 223.091C351.253 222.781 351.515 222.539 351.84 222.363C352.16 222.187 352.512 222.099 352.896 222.099C352.939 222.099 352.981 222.099 353.024 222.099C353.061 222.099 353.091 222.101 353.112 222.107V225.675C353.411 225.648 353.677 225.565 353.912 225.427C354.141 225.283 354.325 225.099 354.464 224.875C354.597 224.645 354.664 224.397 354.664 224.131C354.664 223.859 354.595 223.603 354.456 223.363C354.317 223.117 354.136 222.947 353.912 222.851L354.04 222.379C354.237 222.464 354.416 222.595 354.576 222.771C354.736 222.947 354.861 223.155 354.952 223.395C355.037 223.629 355.08 223.883 355.08 224.155ZM352.72 225.691V222.611C352.416 222.632 352.149 222.715 351.92 222.859C351.691 222.997 351.512 223.181 351.384 223.411C351.251 223.635 351.184 223.883 351.184 224.155C351.184 224.427 351.251 224.675 351.384 224.899C351.512 225.123 351.693 225.307 351.928 225.451C352.157 225.589 352.421 225.669 352.72 225.691ZM355 219.108H349.32V216.708C349.32 216.463 349.371 216.239 349.472 216.036C349.573 215.834 349.712 215.658 349.888 215.508C350.059 215.354 350.251 215.236 350.464 215.156C350.672 215.071 350.885 215.028 351.104 215.028C351.376 215.028 351.632 215.082 351.872 215.188C352.112 215.29 352.315 215.436 352.48 215.628C352.645 215.815 352.755 216.036 352.808 216.292L355 214.9V215.532L352.904 216.868V218.548H355V219.108ZM352.408 218.548V216.692C352.408 216.468 352.347 216.274 352.224 216.108C352.101 215.943 351.941 215.815 351.744 215.724C351.541 215.634 351.328 215.588 351.104 215.588C350.875 215.588 350.664 215.642 350.472 215.748C350.275 215.85 350.117 215.988 350 216.164C349.877 216.335 349.816 216.527 349.816 216.74V218.548H352.408ZM355.08 212.343C355.08 212.641 355.024 212.919 354.912 213.175C354.795 213.425 354.637 213.644 354.44 213.831C354.237 214.012 354.008 214.153 353.752 214.255C353.491 214.356 353.216 214.407 352.928 214.407C352.629 214.407 352.352 214.356 352.096 214.255C351.835 214.153 351.605 214.009 351.408 213.823C351.205 213.636 351.048 213.417 350.936 213.167C350.819 212.911 350.76 212.633 350.76 212.335C350.76 212.036 350.819 211.761 350.936 211.511C351.048 211.26 351.205 211.041 351.408 210.855C351.605 210.668 351.835 210.524 352.096 210.423C352.352 210.321 352.629 210.271 352.928 210.271C353.216 210.271 353.491 210.321 353.752 210.423C354.008 210.524 354.237 210.668 354.44 210.855C354.637 211.036 354.795 211.255 354.912 211.511C355.024 211.761 355.08 212.039 355.08 212.343ZM352.936 213.855C353.245 213.855 353.528 213.788 353.784 213.655C354.035 213.516 354.235 213.332 354.384 213.103C354.528 212.873 354.6 212.62 354.6 212.343C354.6 212.065 354.525 211.812 354.376 211.583C354.227 211.353 354.024 211.169 353.768 211.031C353.507 210.892 353.224 210.823 352.92 210.823C352.611 210.823 352.328 210.892 352.072 211.031C351.816 211.169 351.613 211.353 351.464 211.583C351.315 211.812 351.24 212.065 351.24 212.343C351.24 212.62 351.317 212.873 351.472 213.103C351.627 213.327 351.832 213.508 352.088 213.647C352.339 213.785 352.621 213.855 352.936 213.855ZM353.8 209.697C353.539 209.697 353.315 209.622 353.128 209.473C352.936 209.324 352.789 209.118 352.688 208.857C352.581 208.59 352.528 208.284 352.528 207.937C352.528 207.734 352.544 207.524 352.576 207.305C352.608 207.086 352.656 206.892 352.72 206.721H352.368C352.016 206.721 351.736 206.825 351.528 207.033C351.32 207.241 351.216 207.529 351.216 207.897C351.216 208.121 351.259 208.342 351.344 208.561C351.424 208.774 351.544 208.998 351.704 209.233L351.32 209.441C351.133 209.169 350.995 208.902 350.904 208.641C350.808 208.38 350.76 208.113 350.76 207.841C350.76 207.329 350.907 206.924 351.2 206.625C351.493 206.326 351.899 206.177 352.416 206.177H354.344C354.419 206.177 354.475 206.161 354.512 206.129C354.544 206.097 354.563 206.046 354.568 205.977H355C355.005 206.036 355.011 206.086 355.016 206.129C355.021 206.172 355.021 206.204 355.016 206.225C355.011 206.358 354.968 206.46 354.888 206.529C354.808 206.598 354.723 206.636 354.632 206.641L354.328 206.649C354.568 206.836 354.755 207.078 354.888 207.377C355.016 207.676 355.08 207.98 355.08 208.289C355.08 208.556 355.024 208.798 354.912 209.017C354.795 209.23 354.64 209.398 354.448 209.521C354.251 209.638 354.035 209.697 353.8 209.697ZM354.12 206.905C354.045 206.846 353.973 206.801 353.904 206.769C353.835 206.737 353.773 206.721 353.72 206.721H353.112C353.043 206.902 352.989 207.092 352.952 207.289C352.915 207.481 352.896 207.676 352.896 207.873C352.896 208.262 352.973 208.577 353.128 208.817C353.283 209.057 353.493 209.177 353.76 209.177C353.915 209.177 354.061 209.137 354.2 209.057C354.333 208.977 354.445 208.86 354.536 208.705C354.621 208.55 354.664 208.369 354.664 208.161C354.664 207.9 354.613 207.657 354.512 207.433C354.411 207.204 354.28 207.028 354.12 206.905ZM352.928 205.282C352.533 205.282 352.173 205.202 351.848 205.042C351.517 204.876 351.253 204.65 351.056 204.362C350.859 204.074 350.76 203.746 350.76 203.378C350.76 203.031 350.853 202.722 351.04 202.45C351.221 202.172 351.443 201.956 351.704 201.802H349.16V201.258H354.344C354.419 201.258 354.475 201.242 354.512 201.21C354.544 201.178 354.563 201.13 354.568 201.066H355C355.016 201.172 355.021 201.255 355.016 201.314C355.011 201.426 354.965 201.524 354.88 201.61C354.795 201.695 354.701 201.738 354.6 201.738H354.192C354.464 201.903 354.68 202.127 354.84 202.41C355 202.692 355.08 202.986 355.08 203.29C355.08 203.578 355.021 203.844 354.904 204.09C354.787 204.33 354.627 204.54 354.424 204.722C354.221 204.898 353.992 205.036 353.736 205.138C353.475 205.234 353.205 205.282 352.928 205.282ZM353.568 201.802H352.28C352.088 201.871 351.915 201.983 351.76 202.138C351.6 202.292 351.475 202.468 351.384 202.666C351.288 202.858 351.24 203.05 351.24 203.242C351.24 203.466 351.288 203.668 351.384 203.85C351.475 204.031 351.6 204.188 351.76 204.322C351.92 204.45 352.101 204.548 352.304 204.618C352.507 204.687 352.715 204.722 352.928 204.722C353.152 204.722 353.365 204.684 353.568 204.61C353.771 204.53 353.952 204.418 354.112 204.274C354.267 204.13 354.387 203.964 354.472 203.778C354.557 203.591 354.6 203.388 354.6 203.17C354.6 203.031 354.573 202.887 354.52 202.738C354.467 202.588 354.395 202.447 354.304 202.314C354.208 202.175 354.096 202.06 353.968 201.97C353.84 201.879 353.707 201.823 353.568 201.802Z" fill="#747474"/>
<path d="M51.9973 92.9813L52.4633 93.0558L53.897 99.0372L53.3124 98.9437L52.8661 97.0738L50.3461 96.6709L49.3468 98.3097L48.7543 98.215L51.9973 92.9813ZM52.8091 96.6191L52.1228 93.6657L50.534 96.2554L52.8091 96.6191ZM57.2266 95.8347C56.8668 95.788 56.5348 95.8375 56.2307 95.9833C55.9318 96.13 55.7005 96.3603 55.5368 96.6744L55.1276 99.2339L54.5905 99.148L55.2485 95.0323L55.7541 95.1131L55.5962 96.1006C55.7847 95.8337 56.0091 95.6292 56.2695 95.4872C56.5351 95.346 56.8012 95.286 57.0679 95.307C57.1214 95.3102 57.1666 95.3147 57.2035 95.3206C57.2456 95.3273 57.2794 95.3354 57.3049 95.3449L57.2266 95.8347ZM58.3057 93.8279L58.8428 93.9137L58.0699 98.7483C58.037 98.9537 58.0524 99.0939 58.1161 99.1689C58.1797 99.2439 58.2642 99.2898 58.3695 99.3066C58.4643 99.3218 58.5608 99.3264 58.6589 99.3205C58.7571 99.3146 58.8421 99.3066 58.9139 99.2965L58.9393 99.7461C58.8325 99.7722 58.7032 99.7867 58.5516 99.7894C58.4052 99.793 58.2793 99.7864 58.174 99.7696C57.9317 99.7309 57.7482 99.6286 57.6235 99.4628C57.504 99.2979 57.4641 99.0917 57.5037 98.8442L58.3057 93.8279ZM59.5123 99.935L60.1703 95.8192L60.7075 95.9051L60.0495 100.021L59.5123 99.935ZM60.308 94.9582L60.4343 94.1682L60.9715 94.2541L60.8452 95.044L60.308 94.9582ZM64.6927 100.763L64.1555 100.677L64.5231 98.3785C64.6005 97.894 64.5859 97.5298 64.479 97.2858C64.373 97.0367 64.1673 96.8876 63.8619 96.8388C63.6512 96.8051 63.4348 96.8245 63.2125 96.897C62.9911 96.9642 62.7871 97.0748 62.6005 97.2286C62.42 97.3779 62.2774 97.5604 62.1727 97.7759L61.7698 100.296L61.2327 100.21L61.8907 96.0943L62.3805 96.1726L62.2314 97.1047C62.374 96.9223 62.5466 96.7717 62.7493 96.6528C62.9527 96.5287 63.1744 96.4426 63.4144 96.3946C63.6543 96.3465 63.8954 96.3419 64.1377 96.3806C64.3641 96.4168 64.5496 96.4897 64.6941 96.5992C64.8386 96.7087 64.9457 96.8501 65.0152 97.0232C65.0856 97.1911 65.1242 97.389 65.1309 97.6169C65.1385 97.8396 65.1209 98.0852 65.0779 98.3538L64.6927 100.763ZM67.4804 101.266C67.2013 101.221 66.9525 101.122 66.734 100.968C66.5156 100.814 66.335 100.626 66.1924 100.403C66.0559 100.176 65.9604 99.9289 65.906 99.6609C65.8516 99.393 65.8459 99.1247 65.8889 98.8561C65.9352 98.5665 66.0233 98.3024 66.1532 98.0639C66.2893 97.821 66.4576 97.613 66.6581 97.4398C66.8639 97.2675 67.0915 97.1445 67.3409 97.071C67.5911 96.9922 67.8585 96.9755 68.1429 97.0209C68.4957 97.0774 68.7868 97.2157 69.0163 97.436C69.251 97.6572 69.4368 97.9138 69.5738 98.2057L69.7114 97.3446L70.1933 97.4217L69.5328 101.553C69.4721 101.932 69.329 102.236 69.1034 102.465C68.8823 102.7 68.6058 102.858 68.274 102.94C67.9475 103.023 67.6026 103.035 67.2392 102.977C66.7705 102.902 66.4048 102.757 66.1421 102.542C65.8794 102.327 65.6786 102.063 65.5397 101.749L65.9132 101.542C66.0352 101.826 66.2204 102.053 66.4688 102.222C66.7224 102.392 67.002 102.502 67.3074 102.55C67.576 102.593 67.8289 102.582 68.0661 102.518C68.3077 102.459 68.5099 102.343 68.6727 102.169C68.8408 101.996 68.9484 101.762 68.9956 101.467L69.1257 100.654C68.9264 100.886 68.6772 101.06 68.3781 101.174C68.0798 101.283 67.7806 101.314 67.4804 101.266ZM67.7025 100.839C67.8658 100.865 68.0258 100.861 68.1825 100.827C68.3445 100.793 68.4962 100.739 68.6378 100.665C68.7802 100.585 68.9032 100.491 69.0068 100.384C69.1105 100.276 69.1829 100.161 69.2242 100.037L69.4275 98.7656C69.3805 98.5529 69.2955 98.3584 69.1725 98.1821C69.0503 98.0005 68.9011 97.8524 68.725 97.7378C68.555 97.6188 68.3699 97.5433 68.1698 97.5113C67.938 97.4743 67.722 97.4911 67.5217 97.5617C67.3275 97.6278 67.1541 97.7324 67.0016 97.8755C66.8552 98.0141 66.7318 98.178 66.6314 98.3672C66.5309 98.5564 66.4647 98.751 66.4327 98.9512C66.3973 99.1724 66.4031 99.3893 66.4501 99.6021C66.498 99.8096 66.5777 100.003 66.6894 100.183C66.8072 100.359 66.9515 100.503 67.1223 100.617C67.2985 100.732 67.4918 100.806 67.7025 100.839ZM72.728 101.845C72.6834 101.854 72.6129 101.873 72.5166 101.901C72.4204 101.928 72.3065 101.948 72.1751 101.959C72.0436 101.971 71.9042 101.965 71.7567 101.941C71.604 101.917 71.4638 101.865 71.3361 101.785C71.2137 101.706 71.1223 101.602 71.0618 101.474C71.0022 101.34 70.9863 101.186 71.014 101.012L71.4851 98.0657L70.9164 97.9748L70.9846 97.5482L71.5533 97.6391L71.7756 96.2488L72.3128 96.3347L72.0905 97.725L73.0385 97.8766L72.9703 98.3032L72.0223 98.1516L71.5752 100.948C71.5622 101.097 71.5972 101.216 71.6802 101.305C71.7684 101.395 71.8758 101.45 72.0022 101.47C72.1496 101.494 72.2877 101.491 72.4164 101.463C72.546 101.43 72.6256 101.405 72.6553 101.388L72.728 101.845ZM75.0393 102.498C74.7444 102.451 74.4793 102.352 74.2442 102.201C74.0152 102.046 73.8241 101.856 73.671 101.632C73.5239 101.403 73.4206 101.154 73.3609 100.885C73.3021 100.611 73.2954 100.332 73.3409 100.048C73.3881 99.7526 73.4819 99.4868 73.6223 99.25C73.7637 99.0079 73.9421 98.8042 74.1575 98.6388C74.3739 98.4681 74.6146 98.3473 74.8798 98.2763C75.1512 98.2008 75.4343 98.1867 75.7292 98.2338C76.0241 98.281 76.2861 98.3823 76.5151 98.5377C76.7449 98.6879 76.936 98.8778 77.0883 99.1074C77.2415 99.3317 77.3475 99.5809 77.4063 99.8549C77.4659 100.124 77.4722 100.406 77.425 100.701C77.3796 100.985 77.2862 101.248 77.1449 101.49C77.0044 101.727 76.826 101.931 76.6097 102.101C76.3994 102.268 76.1587 102.388 75.8874 102.464C75.6222 102.535 75.3395 102.546 75.0393 102.498ZM73.8847 100.143C73.8359 100.448 73.8571 100.738 73.9483 101.012C74.0457 101.281 74.1958 101.507 74.3987 101.691C74.6024 101.87 74.8412 101.981 75.1151 102.024C75.3889 102.068 75.6509 102.034 75.9009 101.923C76.1509 101.812 76.3646 101.641 76.542 101.41C76.7201 101.174 76.8332 100.906 76.8812 100.605C76.9301 100.3 76.9062 100.01 76.8097 99.7353C76.7132 99.4606 76.5635 99.2314 76.3606 99.0477C76.1577 98.8641 75.9194 98.7503 75.6455 98.7066C75.3717 98.6628 75.1093 98.6991 74.8584 98.8157C74.6128 98.933 74.4013 99.1072 74.224 99.3381C74.0475 99.5637 73.9344 99.8319 73.8847 100.143ZM81.4564 103.443L80.9192 103.357L81.2867 101.059C81.3642 100.574 81.3495 100.21 81.2427 99.966C81.1367 99.7168 80.931 99.5678 80.6255 99.519C80.4149 99.4853 80.1984 99.5047 79.9762 99.5772C79.7548 99.6444 79.5508 99.7549 79.3642 99.9087C79.1837 100.058 79.0411 100.241 78.9364 100.456L78.5335 102.976L77.9963 102.89L78.6543 98.7744L79.1441 98.8527L78.9951 99.7849C79.1377 99.6025 79.3103 99.4518 79.5129 99.333C79.7164 99.2089 79.9381 99.1228 80.178 99.0748C80.418 99.0267 80.6591 99.022 80.9013 99.0608C81.1278 99.097 81.3133 99.1698 81.4578 99.2794C81.6023 99.3889 81.7093 99.5302 81.7789 99.7034C81.8493 99.8712 81.8878 100.069 81.8946 100.297C81.9022 100.52 81.8845 100.765 81.8416 101.034L81.4564 103.443Z" fill="#747474"/>
<path d="M1.09975 249.316C1.05512 249.595 0.944032 249.834 0.766474 250.032C0.589758 250.225 0.370168 250.366 0.107703 250.454C-0.148653 250.537 -0.419025 250.556 -0.703413 250.51L-3.3498 250.087L-2.45308 244.478L0.248611 244.91C0.511934 244.952 0.727024 245.06 0.893882 245.232C1.06685 245.4 1.18568 245.603 1.25038 245.84C1.32119 246.073 1.33765 246.308 1.29976 246.545C1.25513 246.824 1.14278 247.071 0.962692 247.285C0.782608 247.499 0.556909 247.644 0.285595 247.719C0.591693 247.866 0.816276 248.082 0.959343 248.37C1.10768 248.658 1.15448 248.974 1.09975 249.316ZM0.561929 249.133C0.592241 248.943 0.577895 248.763 0.518892 248.591C0.46073 248.414 0.365919 248.264 0.234456 248.141C0.10826 248.018 -0.0470012 247.942 -0.231327 247.912L-2.38004 247.569L-2.71978 249.694L-0.62637 250.028C-0.436778 250.059 -0.25762 250.036 -0.0888947 249.96C0.0798302 249.885 0.221587 249.775 0.336377 249.631C0.457275 249.483 0.532459 249.317 0.561929 249.133ZM-1.97714 245.049L-2.30805 247.118L-0.380527 247.427C-0.196201 247.456 -0.0253634 247.435 0.131987 247.363C0.290179 247.285 0.424036 247.174 0.533559 247.03C0.643083 246.885 0.712158 246.724 0.740786 246.544C0.771098 246.355 0.758964 246.177 0.704385 246.012C0.650649 245.841 0.562894 245.698 0.441123 245.581C0.319351 245.464 0.171569 245.392 -0.00222428 245.364L-1.97714 245.049ZM1.65857 249.673C1.69983 249.415 1.80892 249.205 1.98585 249.044C2.16362 248.878 2.38954 248.766 2.66359 248.707C2.94375 248.644 3.25499 248.64 3.59731 248.694C3.79744 248.726 4.00294 248.775 4.21381 248.842C4.42468 248.908 4.60933 248.986 4.76775 249.076L4.82332 248.728C4.8789 248.381 4.82041 248.088 4.64785 247.85C4.4753 247.611 4.20733 247.463 3.84394 247.405C3.62275 247.37 3.39746 247.377 3.16806 247.427C2.94478 247.472 2.70464 247.555 2.44766 247.676L2.30289 247.264C2.60095 247.123 2.88616 247.028 3.15853 246.98C3.43174 246.926 3.70264 246.921 3.97123 246.964C4.47681 247.045 4.85391 247.253 5.10252 247.59C5.35113 247.927 5.4346 248.351 5.35292 248.862L5.04854 250.766C5.03675 250.839 5.04371 250.897 5.06942 250.939C5.09596 250.976 5.14305 251.002 5.21067 251.018L5.14247 251.445C5.0837 251.441 5.03282 251.438 4.98985 251.437C4.94688 251.435 4.91528 251.43 4.89505 251.422C4.76423 251.395 4.67091 251.337 4.61507 251.247C4.55924 251.157 4.53585 251.067 4.54489 250.977L4.58499 250.675C4.36277 250.883 4.09368 251.029 3.77771 251.113C3.46258 251.192 3.15229 251.208 2.84683 251.159C2.58351 251.117 2.35273 251.023 2.15449 250.878C1.96235 250.728 1.82088 250.549 1.73006 250.34C1.64535 250.127 1.62152 249.904 1.65857 249.673ZM4.36504 250.429C4.43475 250.365 4.49089 250.301 4.53343 250.238C4.57598 250.174 4.60146 250.116 4.60988 250.063L4.70587 249.463C4.53775 249.366 4.35921 249.283 4.17025 249.215C3.98655 249.148 3.79727 249.099 3.60241 249.068C3.21796 249.006 2.89503 249.033 2.63363 249.148C2.37222 249.263 2.22046 249.452 2.17836 249.715C2.15395 249.868 2.17029 250.019 2.22739 250.169C2.28534 250.313 2.38352 250.442 2.52193 250.556C2.66119 250.665 2.83351 250.735 3.0389 250.768C3.29696 250.81 3.54458 250.798 3.78177 250.733C4.02423 250.669 4.21865 250.568 4.36504 250.429ZM9.04429 252.069L7.85687 249.716L6.84866 250.397L6.64279 251.685L6.10561 251.599L7.0276 245.832L7.56478 245.918L6.94086 249.82L9.62995 247.949L10.2224 248.044L8.27078 249.458L9.62887 252.162L9.04429 252.069ZM11.8434 252.597C11.5485 252.55 11.2835 252.451 11.0483 252.3C10.8141 252.144 10.6204 251.953 10.4672 251.729C10.3149 251.499 10.2067 251.247 10.1426 250.972C10.0838 250.698 10.078 250.414 10.1251 250.119C10.1866 249.734 10.3299 249.395 10.555 249.102C10.7855 248.809 11.0712 248.593 11.4122 248.453C11.7541 248.308 12.1225 248.267 12.5175 248.33C12.923 248.395 13.2603 248.549 13.5293 248.792C13.8036 249.035 14.002 249.332 14.1244 249.681C14.2477 250.025 14.279 250.386 14.2184 250.765C14.2117 250.807 14.2049 250.849 14.1982 250.892C14.1923 250.928 14.185 250.957 14.1764 250.977L10.6531 250.414C10.6323 250.713 10.6719 250.989 10.7717 251.243C10.8777 251.492 11.0304 251.703 11.2297 251.875C11.4351 252.043 11.6694 252.148 11.9328 252.19C12.2014 252.233 12.4651 252.205 12.724 252.106C12.9881 252.008 13.1853 251.856 13.3154 251.65L13.7613 251.851C13.6459 252.032 13.4887 252.188 13.2896 252.318C13.0905 252.448 12.8654 252.539 12.6141 252.591C12.3689 252.638 12.112 252.64 11.8434 252.597ZM10.6992 250.024L13.7406 250.511C13.7675 250.207 13.728 249.931 13.622 249.681C13.5213 249.433 13.3678 249.228 13.1616 249.065C12.9614 248.898 12.7271 248.793 12.4585 248.75C12.1899 248.707 11.9345 248.734 11.6922 248.83C11.4508 248.921 11.2405 249.071 11.0613 249.28C10.8881 249.485 10.7675 249.733 10.6992 250.024ZM17.3512 249.662C16.9914 249.615 16.6594 249.665 16.3552 249.811C16.0563 249.957 15.8251 250.188 15.6614 250.502L15.2522 253.061L14.715 252.975L15.373 248.86L15.8786 248.94L15.7207 249.928C15.9093 249.661 16.1337 249.456 16.394 249.314C16.6596 249.173 16.9258 249.113 17.1925 249.134C17.246 249.137 17.2912 249.142 17.3281 249.148C17.3702 249.155 17.404 249.163 17.4295 249.172L17.3512 249.662ZM23.4306 249.694C23.3659 249.592 23.2864 249.498 23.192 249.413C23.0984 249.322 22.9901 249.24 22.8668 249.167C22.7436 249.093 22.6081 249.028 22.4604 248.972C22.318 248.917 22.1626 248.876 21.994 248.849C21.5043 248.77 21.1283 248.808 20.8663 248.96C20.6104 249.108 20.4567 249.343 20.4054 249.664C20.37 249.885 20.3949 250.068 20.48 250.211C20.5704 250.355 20.7251 250.485 20.9442 250.601C21.1633 250.717 21.4452 250.846 21.7898 250.987C22.1766 251.136 22.5056 251.291 22.7767 251.453C23.0478 251.615 23.2464 251.809 23.3724 252.034C23.4992 252.254 23.5357 252.533 23.4818 252.87C23.4406 253.128 23.3548 253.344 23.2244 253.518C23.094 253.691 22.9292 253.827 22.7299 253.925C22.5307 254.022 22.3022 254.083 22.0446 254.107C21.7878 254.125 21.5119 254.111 21.217 254.063C20.9274 254.017 20.6529 253.944 20.3935 253.843C20.1403 253.737 19.9045 253.608 19.686 253.454C19.4684 253.295 19.2716 253.107 19.0957 252.89L19.4442 252.484C19.5274 252.605 19.6299 252.724 19.7517 252.841C19.8796 252.953 20.0219 253.06 20.1786 253.16C20.3406 253.262 20.5157 253.349 20.7038 253.422C20.898 253.491 21.1005 253.543 21.3111 253.576C21.7588 253.648 22.1194 253.622 22.393 253.498C22.6719 253.375 22.8371 253.153 22.8884 252.832C22.9255 252.6 22.8917 252.406 22.7872 252.249C22.6836 252.086 22.5125 251.94 22.274 251.81C22.0356 251.68 21.7387 251.544 21.3835 251.4C21.0081 251.249 20.695 251.096 20.4441 250.942C20.1932 250.789 20.0136 250.612 19.9053 250.411C19.8031 250.205 19.776 249.952 19.824 249.652C19.8795 249.305 20.0105 249.026 20.217 248.816C20.4295 248.601 20.6955 248.457 21.0151 248.384C21.3355 248.306 21.6905 248.298 22.0802 248.36C22.3278 248.4 22.5526 248.463 22.7549 248.549C22.9632 248.631 23.1494 248.734 23.3133 248.857C23.4824 248.981 23.6346 249.127 23.7699 249.295L23.4306 249.694ZM26.0484 254.585C26.0037 254.594 25.9333 254.612 25.837 254.64C25.7407 254.668 25.6269 254.687 25.4954 254.699C25.364 254.71 25.2245 254.704 25.0771 254.681C24.9243 254.656 24.7841 254.604 24.6565 254.524C24.5341 254.445 24.4426 254.342 24.3822 254.213C24.3225 254.079 24.3066 253.925 24.3344 253.752L24.8055 250.805L24.2367 250.714L24.3049 250.288L24.8737 250.379L25.096 248.988L25.6332 249.074L25.4109 250.464L26.3588 250.616L26.2906 251.043L25.3427 250.891L24.8956 253.687C24.8825 253.837 24.9175 253.956 25.0005 254.045C25.0888 254.134 25.1961 254.189 25.3225 254.209C25.47 254.233 25.6081 254.231 25.7368 254.203C25.8663 254.169 25.9459 254.144 25.9756 254.128L26.0484 254.585ZM29.3241 251.576C28.9643 251.529 28.6323 251.579 28.3282 251.725C28.0293 251.871 27.798 252.102 27.6344 252.416L27.2251 254.975L26.688 254.89L27.346 250.774L27.8516 250.855L27.6937 251.842C27.8822 251.575 28.1066 251.371 28.367 251.229C28.6326 251.088 28.8987 251.027 29.1654 251.049C29.2189 251.052 29.2641 251.056 29.301 251.062C29.3431 251.069 29.3769 251.077 29.4024 251.086L29.3241 251.576ZM31.0911 255.675C30.7962 255.627 30.5312 255.528 30.2961 255.377C30.0618 255.221 29.8681 255.031 29.7149 254.806C29.5626 254.577 29.4544 254.325 29.3903 254.05C29.3315 253.776 29.3257 253.491 29.3728 253.196C29.4343 252.812 29.5776 252.473 29.8028 252.179C30.0332 251.887 30.3189 251.67 30.66 251.53C31.0018 251.385 31.3703 251.344 31.7652 251.407C32.1708 251.472 32.508 251.626 32.7771 251.869C33.0514 252.113 33.2497 252.409 33.3722 252.758C33.4954 253.102 33.5268 253.463 33.4661 253.843C33.4594 253.885 33.4527 253.927 33.4459 253.969C33.44 254.006 33.4328 254.034 33.4241 254.055L29.9009 253.491C29.8801 253.79 29.9196 254.067 30.0195 254.32C30.1255 254.57 30.2781 254.78 30.4774 254.953C30.6828 255.12 30.9172 255.225 31.1805 255.268C31.4491 255.31 31.7128 255.282 31.9717 255.183C32.2359 255.085 32.433 254.933 32.5632 254.727L33.009 254.928C32.8936 255.109 32.7364 255.265 32.5373 255.395C32.3383 255.526 32.1131 255.616 31.8618 255.668C31.6166 255.715 31.3597 255.717 31.0911 255.675ZM29.947 253.102L32.9883 253.588C33.0153 253.284 32.9757 253.008 32.8698 252.759C32.769 252.51 32.6156 252.305 32.4093 252.142C32.2092 251.975 31.9748 251.87 31.7062 251.827C31.4376 251.784 31.1822 251.811 30.94 251.907C30.6986 251.998 30.4882 252.148 30.309 252.357C30.1359 252.562 30.0152 252.81 29.947 253.102ZM35.7276 256.416C35.4326 256.369 35.1676 256.27 34.9325 256.119C34.6982 255.962 34.5045 255.772 34.3514 255.548C34.199 255.318 34.0908 255.066 34.0268 254.791C33.968 254.517 33.9621 254.232 34.0093 253.937C34.0707 253.553 34.2141 253.214 34.4392 252.921C34.6696 252.628 34.9554 252.412 35.2964 252.272C35.6383 252.127 36.0067 252.086 36.4017 252.149C36.8072 252.214 37.1445 252.367 37.4135 252.61C37.6878 252.854 37.8862 253.15 38.0086 253.499C38.1319 253.843 38.1632 254.205 38.1026 254.584C38.0958 254.626 38.0891 254.668 38.0824 254.71C38.0765 254.747 38.0692 254.776 38.0606 254.796L34.5373 254.233C34.5165 254.532 34.556 254.808 34.6559 255.062C34.7619 255.311 34.9145 255.522 35.1138 255.694C35.3192 255.862 35.5536 255.967 35.8169 256.009C36.0855 256.052 36.3493 256.024 36.6081 255.925C36.8723 255.826 37.0694 255.674 37.1996 255.468L37.6455 255.669C37.5301 255.851 37.3728 256.006 37.1738 256.137C36.9747 256.267 36.7495 256.358 36.4982 256.409C36.253 256.457 35.9961 256.459 35.7276 256.416ZM34.5834 253.843L37.6248 254.329C37.6517 254.026 37.6122 253.749 37.5062 253.5C37.4055 253.252 37.252 253.046 37.0457 252.884C36.8456 252.717 36.6112 252.612 36.3426 252.569C36.074 252.526 35.8186 252.552 35.5764 252.649C35.335 252.74 35.1247 252.89 34.9454 253.099C34.7723 253.303 34.6516 253.551 34.5834 253.843ZM40.5671 256.906C40.5225 256.915 40.452 256.933 40.3557 256.961C40.2595 256.989 40.1456 257.009 40.0142 257.02C39.8827 257.032 39.7433 257.025 39.5958 257.002C39.4431 256.977 39.3029 256.925 39.1752 256.845C39.0528 256.767 38.9614 256.663 38.9009 256.534C38.8413 256.401 38.8253 256.247 38.8531 256.073L39.3242 253.126L38.7555 253.035L38.8237 252.609L39.3924 252.7L39.6147 251.309L40.1519 251.395L39.9296 252.786L40.8776 252.937L40.8094 253.364L39.8614 253.212L39.4143 256.009C39.4013 256.158 39.4362 256.277 39.5193 256.366C39.6075 256.456 39.7149 256.51 39.8413 256.531C39.9887 256.554 40.1268 256.552 40.2555 256.524C40.3851 256.491 40.4647 256.466 40.4944 256.449L40.5671 256.906Z" fill="#747474"/>
<path d="M240.5 78.1725C239.61 78.1725 238.89 77.4525 238.89 76.5625C238.89 76.1355 239.06 75.726 239.362 75.4241C239.663 75.1221 240.073 74.9525 240.5 74.9525C241.39 74.9525 242.11 75.6725 242.11 76.5625C242.11 76.9895 241.94 77.399 241.638 77.7009C241.337 78.0029 240.927 78.1725 240.5 78.1725ZM240.5 72.0625C238 72.0625 236 74.0625 236 76.5625C236 79.9325 240.5 84.9225 240.5 84.9225C240.5 84.9225 245 79.9325 245 76.5625C245 74.0625 243 72.0625 240.5 72.0625ZM251.5 78.1725C251.073 78.1725 250.663 78.0029 250.362 77.7009C250.06 77.399 249.89 76.9895 249.89 76.5625C249.89 76.3511 249.932 76.1417 250.013 75.9464C250.093 75.751 250.212 75.5736 250.362 75.4241C250.511 75.2746 250.689 75.156 250.884 75.0751C251.079 74.9941 251.289 74.9525 251.5 74.9525C251.711 74.9525 251.921 74.9941 252.116 75.0751C252.311 75.156 252.489 75.2746 252.638 75.4241C252.788 75.5736 252.907 75.751 252.987 75.9464C253.068 76.1417 253.11 76.3511 253.11 76.5625C253.11 76.9895 252.94 77.399 252.638 77.7009C252.337 78.0029 251.927 78.1725 251.5 78.1725ZM251.5 72.0625C249 72.0625 247 74.0625 247 76.5625C247 79.9325 251.5 84.9225 251.5 84.9225C251.5 84.9225 256 79.9325 256 76.5625C256 74.0625 254 72.0625 251.5 72.0625ZM251.5 86.0625C250.23 86.0625 249.1 86.8625 248.68 88.0625H243.32C243.055 87.3141 242.504 86.7012 241.788 86.3582C241.072 86.0152 240.249 85.97 239.5 86.2325C239.128 86.363 238.785 86.5656 238.49 86.8288C238.196 87.0919 237.957 87.4104 237.786 87.7661C237.615 88.1218 237.516 88.5077 237.495 88.9018C237.473 89.2958 237.529 89.6902 237.66 90.0625C237.929 90.8129 238.483 91.4265 239.203 91.7694C239.922 92.1123 240.748 92.1565 241.5 91.8925C242.35 91.5925 243 90.9125 243.32 90.0625H248.69C249.24 91.6225 250.96 92.4425 252.5 91.8925C252.874 91.7633 253.218 91.5617 253.513 91.299C253.809 91.0364 254.049 90.7179 254.221 90.362C254.393 90.0061 254.493 89.6198 254.515 89.2251C254.537 88.8305 254.481 88.4354 254.35 88.0625C253.92 86.8625 252.78 86.0625 251.5 86.0625ZM251.5 90.5625C251.102 90.5625 250.721 90.4045 250.439 90.1232C250.158 89.8419 250 89.4603 250 89.0625C250 88.6647 250.158 88.2831 250.439 88.0018C250.721 87.7205 251.102 87.5625 251.5 87.5625C251.898 87.5625 252.279 87.7205 252.561 88.0018C252.842 88.2831 253 88.6647 253 89.0625C253 89.4603 252.842 89.8419 252.561 90.1232C252.279 90.4045 251.898 90.5625 251.5 90.5625Z" fill="#747474"/>
<path d="M144 278.062L188.119 114.838C188.297 114.181 188.407 113.508 188.448 112.828L193 37.0625" stroke="#B8FF01" stroke-width="5"/>
<g filter="url(#filter0_d_48_11013)">
<path d="M85.7823 301.679L149.313 251.727C149.916 251.252 150.811 251.635 150.913 252.412L161.005 328.901C161.144 329.953 159.799 330.456 159.205 329.575L136.1 295.268C135.876 294.935 135.482 294.765 135.095 294.834L86.5881 303.472C85.568 303.653 84.9683 302.319 85.7823 301.679Z" fill="#B8FF01"/>
</g>
<path d="M157.763 252.999L157.921 252.431L165.552 251.494L165.354 252.207L162.968 252.497L162.112 255.57L164.007 257.043L163.806 257.765L157.763 252.999ZM162.396 252.504L158.631 252.94L161.623 255.278L162.396 252.504ZM166.598 248.113C166.482 248.53 166.268 248.875 165.956 249.148C165.647 249.415 165.305 249.6 164.93 249.703L168.022 250.565L167.84 251.22L160.769 249.25L160.933 248.663L161.906 248.934C161.646 248.647 161.467 248.31 161.367 247.922C161.261 247.533 161.261 247.149 161.366 246.77C161.463 246.423 161.625 246.126 161.854 245.878C162.075 245.628 162.338 245.431 162.641 245.287C162.944 245.143 163.269 245.057 163.616 245.029C163.958 244.993 164.296 245.022 164.63 245.115C165.099 245.245 165.506 245.462 165.85 245.766C166.19 246.061 166.431 246.412 166.574 246.819C166.717 247.225 166.725 247.657 166.598 248.113ZM165.969 248.135C166.046 247.859 166.06 247.596 166.012 247.347C165.957 247.097 165.855 246.868 165.705 246.66C165.557 246.446 165.376 246.264 165.161 246.114C164.941 245.962 164.702 245.851 164.445 245.779C164.175 245.704 163.905 245.681 163.634 245.709C163.365 245.731 163.113 245.803 162.879 245.924C162.644 246.046 162.441 246.204 162.269 246.398C162.097 246.593 161.975 246.822 161.901 247.085C161.855 247.252 161.839 247.434 161.853 247.632C161.867 247.83 161.912 248.029 161.987 248.23C162.058 248.423 162.152 248.594 162.27 248.745C162.387 248.895 162.526 249.006 162.685 249.078L164.227 249.508C164.493 249.471 164.747 249.393 164.987 249.273C165.222 249.152 165.428 248.995 165.607 248.802C165.78 248.601 165.901 248.379 165.969 248.135ZM168.254 242.167C168.138 242.584 167.924 242.93 167.612 243.203C167.303 243.47 166.961 243.655 166.586 243.758L169.678 244.619L169.496 245.274L162.425 243.305L162.588 242.717L163.561 242.988C163.302 242.701 163.123 242.364 163.023 241.977C162.917 241.587 162.917 241.203 163.022 240.824C163.119 240.477 163.281 240.18 163.509 239.932C163.731 239.683 163.994 239.486 164.297 239.342C164.6 239.198 164.925 239.112 165.272 239.084C165.614 239.048 165.952 239.076 166.286 239.169C166.755 239.3 167.162 239.517 167.506 239.82C167.846 240.116 168.087 240.467 168.23 240.873C168.373 241.28 168.381 241.711 168.254 242.167ZM167.625 242.189C167.702 241.913 167.716 241.65 167.668 241.402C167.613 241.151 167.511 240.922 167.361 240.714C167.213 240.5 167.032 240.318 166.817 240.168C166.597 240.017 166.358 239.905 166.101 239.834C165.831 239.759 165.561 239.735 165.29 239.764C165.021 239.786 164.769 239.857 164.535 239.979C164.3 240.1 164.097 240.258 163.925 240.453C163.753 240.647 163.631 240.876 163.557 241.139C163.511 241.306 163.495 241.489 163.509 241.686C163.523 241.884 163.568 242.083 163.643 242.284C163.714 242.477 163.808 242.649 163.926 242.799C164.043 242.949 164.181 243.061 164.341 243.133L165.883 243.562C166.149 243.525 166.402 243.447 166.643 243.328C166.878 243.206 167.084 243.049 167.263 242.856C167.436 242.656 167.557 242.433 167.625 242.189ZM162.075 236.77L162.258 236.115L168.153 237.757C168.404 237.826 168.58 237.827 168.682 237.759C168.784 237.69 168.853 237.592 168.889 237.463C168.921 237.348 168.941 237.228 168.947 237.106C168.954 236.983 168.956 236.876 168.953 236.786L169.515 236.818C169.533 236.954 169.532 237.116 169.515 237.305C169.498 237.487 169.472 237.643 169.437 237.771C169.354 238.067 169.201 238.28 168.978 238.412C168.756 238.537 168.494 238.557 168.193 238.473L162.075 236.77ZM170.531 233.992C170.431 234.351 170.27 234.667 170.049 234.937C169.822 235.206 169.559 235.42 169.258 235.579C168.952 235.735 168.623 235.834 168.273 235.875C167.924 235.909 167.57 235.876 167.21 235.776C166.741 235.646 166.341 235.42 166.008 235.099C165.677 234.771 165.449 234.386 165.323 233.943C165.191 233.498 165.192 233.034 165.326 232.553C165.464 232.058 165.702 231.661 166.042 231.361C166.383 231.055 166.779 230.85 167.23 230.747C167.675 230.643 168.128 230.655 168.59 230.783C168.642 230.798 168.693 230.812 168.745 230.826C168.789 230.839 168.824 230.852 168.848 230.866L167.651 235.162C168.02 235.23 168.369 235.22 168.698 235.132C169.022 235.035 169.305 234.875 169.548 234.652C169.785 234.421 169.948 234.144 170.038 233.823C170.129 233.496 170.131 233.164 170.045 232.829C169.96 232.487 169.799 232.22 169.562 232.03L169.874 231.504C170.083 231.673 170.254 231.891 170.388 232.156C170.522 232.422 170.603 232.714 170.632 233.034C170.656 233.345 170.622 233.664 170.531 233.992ZM167.174 235.05L168.207 231.341C167.834 231.265 167.485 231.275 167.16 231.371C166.838 231.461 166.561 231.623 166.33 231.856C166.094 232.081 165.931 232.358 165.839 232.685C165.748 233.013 165.745 233.334 165.831 233.648C165.91 233.961 166.066 234.243 166.301 234.495C166.53 234.739 166.821 234.924 167.174 235.05ZM172.034 228.484C171.939 228.824 171.781 229.119 171.559 229.369C171.337 229.619 171.078 229.816 170.781 229.962C170.48 230.1 170.159 230.183 169.819 230.213C169.478 230.243 169.144 230.212 168.817 230.121C168.463 230.022 168.148 229.876 167.87 229.681C167.587 229.477 167.353 229.239 167.166 228.965C166.981 228.686 166.86 228.386 166.804 228.065C166.742 227.743 166.759 227.409 166.855 227.062C166.975 226.632 167.188 226.29 167.494 226.036C167.802 225.776 168.147 225.581 168.529 225.452L167.478 225.16L167.642 224.572L172.68 225.975C173.143 226.104 173.5 226.325 173.752 226.637C174.012 226.945 174.17 227.311 174.225 227.734C174.282 228.152 174.249 228.582 174.125 229.025C173.966 229.596 173.734 230.03 173.431 230.326C173.127 230.622 172.77 230.834 172.361 230.962L172.155 230.469C172.526 230.358 172.833 230.16 173.079 229.875C173.326 229.584 173.501 229.252 173.605 228.88C173.696 228.552 173.718 228.237 173.671 227.933C173.633 227.625 173.517 227.357 173.324 227.13C173.133 226.897 172.858 226.731 172.498 226.63L171.506 226.354C171.767 226.634 171.947 226.968 172.047 227.356C172.14 227.742 172.136 228.118 172.034 228.484ZM171.536 228.148C171.591 227.949 171.608 227.75 171.588 227.55C171.569 227.344 171.523 227.148 171.451 226.962C171.372 226.774 171.273 226.608 171.153 226.464C171.034 226.32 170.901 226.213 170.754 226.145L169.203 225.713C168.932 225.741 168.679 225.819 168.443 225.947C168.2 226.074 167.995 226.238 167.828 226.44C167.656 226.635 167.536 226.854 167.468 227.098C167.389 227.381 167.38 227.651 167.439 227.91C167.494 228.161 167.599 228.391 167.756 228.6C167.907 228.802 168.093 228.978 168.314 229.13C168.535 229.281 168.767 229.391 169.011 229.459C169.281 229.534 169.551 229.557 169.822 229.529C170.087 229.499 170.338 229.427 170.578 229.314C170.812 229.192 171.012 229.033 171.177 228.837C171.345 228.635 171.464 228.405 171.536 228.148ZM171.506 224.526C171.192 224.438 170.947 224.273 170.772 224.03C170.591 223.786 170.483 223.49 170.449 223.141C170.41 222.784 170.449 222.397 170.565 221.98C170.633 221.736 170.723 221.487 170.835 221.235C170.947 220.982 171.07 220.764 171.204 220.58L170.78 220.462C170.356 220.344 169.984 220.375 169.664 220.556C169.344 220.736 169.122 221.048 168.998 221.491C168.923 221.761 168.9 222.042 168.93 222.334C168.955 222.618 169.024 222.928 169.138 223.264L168.606 223.386C168.472 222.995 168.395 222.628 168.373 222.283C168.345 221.936 168.377 221.599 168.468 221.271C168.64 220.655 168.952 220.216 169.406 219.954C169.859 219.693 170.397 219.649 171.02 219.823L173.342 220.469C173.432 220.494 173.505 220.494 173.56 220.468C173.61 220.44 173.649 220.385 173.679 220.304L174.199 220.449C174.186 220.521 174.175 220.584 174.167 220.637C174.159 220.69 174.149 220.729 174.135 220.753C174.084 220.911 173.999 221.019 173.879 221.076C173.759 221.132 173.644 221.149 173.533 221.125L173.164 221.032C173.391 221.338 173.534 221.692 173.595 222.097C173.649 222.499 173.624 222.887 173.52 223.259C173.43 223.581 173.282 223.854 173.073 224.08C172.861 224.297 172.618 224.448 172.346 224.531C172.069 224.606 171.789 224.604 171.506 224.526ZM172.828 221.271C172.758 221.175 172.686 221.096 172.614 221.035C172.541 220.973 172.472 220.933 172.408 220.915L171.676 220.711C171.532 220.906 171.404 221.116 171.293 221.342C171.183 221.56 171.096 221.788 171.03 222.026C170.899 222.495 170.887 222.9 170.992 223.241C171.098 223.581 171.311 223.797 171.633 223.886C171.819 223.938 172.009 223.939 172.203 223.889C172.39 223.837 172.564 223.734 172.725 223.578C172.88 223.42 172.992 223.216 173.062 222.966C173.15 222.651 173.17 222.342 173.123 222.038C173.078 221.728 172.98 221.472 172.828 221.271ZM174.946 216.836C174.95 216.893 174.963 216.983 174.984 217.107C175.005 217.23 175.014 217.374 175.009 217.539C175.005 217.704 174.978 217.876 174.928 218.056C174.876 218.242 174.791 218.409 174.674 218.556C174.559 218.697 174.417 218.796 174.249 218.853C174.074 218.908 173.881 218.907 173.669 218.848L170.076 217.847L169.883 218.54L169.362 218.395L169.556 217.702L167.86 217.23L168.043 216.575L169.738 217.047L170.06 215.891L170.58 216.036L170.258 217.192L173.668 218.141C173.852 218.179 174.005 218.152 174.127 218.062C174.251 217.965 174.334 217.839 174.377 217.685C174.427 217.505 174.444 217.333 174.427 217.169C174.404 217.004 174.384 216.901 174.367 216.862L174.946 216.836ZM176.091 214.029C175.991 214.389 175.83 214.704 175.609 214.974C175.382 215.243 175.119 215.457 174.818 215.616C174.512 215.772 174.183 215.871 173.833 215.912C173.484 215.946 173.13 215.914 172.77 215.813C172.301 215.683 171.901 215.457 171.568 215.136C171.237 214.808 171.009 214.423 170.883 213.98C170.751 213.535 170.752 213.071 170.886 212.59C171.024 212.095 171.262 211.698 171.602 211.398C171.943 211.092 172.339 210.887 172.79 210.784C173.235 210.68 173.688 210.692 174.15 210.821C174.202 210.835 174.253 210.849 174.305 210.864C174.349 210.876 174.384 210.889 174.408 210.903L173.211 215.199C173.58 215.267 173.929 215.257 174.258 215.169C174.582 215.072 174.865 214.913 175.108 214.689C175.345 214.458 175.508 214.182 175.598 213.86C175.689 213.533 175.691 213.201 175.605 212.866C175.52 212.524 175.359 212.258 175.122 212.067L175.434 211.541C175.643 211.71 175.814 211.928 175.948 212.193C176.082 212.459 176.163 212.751 176.191 213.071C176.216 213.382 176.182 213.701 176.091 214.029ZM172.734 215.087L173.767 211.378C173.394 211.302 173.045 211.312 172.72 211.408C172.398 211.499 172.121 211.66 171.89 211.893C171.654 212.118 171.491 212.395 171.399 212.722C171.308 213.05 171.305 213.371 171.391 213.685C171.47 213.998 171.626 214.28 171.861 214.532C172.09 214.776 172.381 214.961 172.734 215.087Z" fill="#747474"/>
<path d="M193.5 0C189.217 0.00505319 185.11 1.70885 182.081 4.73764C179.053 7.76643 177.349 11.8729 177.344 16.1562C177.339 19.6566 178.482 23.062 180.599 25.85C180.599 25.85 181.039 26.4302 181.111 26.5139L193.5 41.125L205.895 26.5065C205.959 26.4287 206.402 25.85 206.402 25.85L206.403 25.8456C208.518 23.0588 209.661 19.655 209.656 16.1562C209.651 11.8729 207.947 7.76643 204.919 4.73764C201.89 1.70885 197.783 0.00505319 193.5 0ZM193.5 22.0312C192.338 22.0312 191.202 21.6867 190.236 21.0411C189.27 20.3956 188.517 19.478 188.072 18.4045C187.628 17.331 187.511 16.1497 187.738 15.0101C187.965 13.8705 188.524 12.8236 189.346 12.002C190.167 11.1804 191.214 10.6208 192.354 10.3941C193.493 10.1674 194.675 10.2838 195.748 10.7285C196.822 11.1731 197.739 11.9261 198.385 12.8923C199.03 13.8584 199.375 14.9943 199.375 16.1562C199.373 17.7138 198.753 19.207 197.652 20.3084C196.551 21.4097 195.058 22.0293 193.5 22.0312Z" fill="#F50505"/>
<g filter="url(#filter1_f_48_11013)">
<path d="M144 278.062L188.119 114.838C188.297 114.181 188.407 113.508 188.448 112.828L193 37.0625" stroke="#B8FF01" stroke-width="5"/>
</g>
<g filter="url(#filter2_f_48_11013)">
<path d="M85.7823 301.679L149.313 251.727C149.916 251.252 150.811 251.635 150.913 252.412L161.005 328.901C161.144 329.953 159.798 330.456 159.205 329.575L136.1 295.268C135.876 294.935 135.482 294.765 135.095 294.834L86.5881 303.472C85.568 303.653 84.9683 302.319 85.7823 301.679Z" fill="#B8FF01"/>
</g>
<defs>
<filter id="filter0_d_48_11013" x="85.4023" y="251.519" width="83.6123" height="86.5083" filterUnits="userSpaceOnUse" color-interpolation-filters="sRGB">
<feFlood flood-opacity="0" result="BackgroundImageFix"/>
<feColorMatrix in="SourceAlpha" type="matrix" values="0 0 0 0 0 0 0 0 0 0 0 0 0 0 0 0 0 0 127 0" result="hardAlpha"/>
<feOffset dx="4" dy="4"/>
<feGaussianBlur stdDeviation="2"/>
<feComposite in2="hardAlpha" operator="out"/>
<feColorMatrix type="matrix" values="0 0 0 0 0 0 0 0 0 0 0 0 0 0 0 0 0 0 0.25 0"/>
<feBlend mode="normal" in2="BackgroundImageFix" result="effect1_dropShadow_48_11013"/>
<feBlend mode="normal" in="SourceGraphic" in2="effect1_dropShadow_48_11013" result="shape"/>
</filter>
<filter id="filter1_f_48_11013" x="131.586" y="26.9126" width="73.9092" height="261.802" filterUnits="userSpaceOnUse" color-interpolation-filters="sRGB">
<feFlood flood-opacity="0" result="BackgroundImageFix"/>
<feBlend mode="normal" in="SourceGraphic" in2="BackgroundImageFix" result="shape"/>
<feGaussianBlur stdDeviation="5" result="effect1_foregroundBlur_48_11013"/>
</filter>
<filter id="filter2_f_48_11013" x="75.4023" y="241.519" width="95.6123" height="98.5083" filterUnits="userSpaceOnUse" color-interpolation-filters="sRGB">
<feFlood flood-opacity="0" result="BackgroundImageFix"/>
<feBlend mode="normal" in="SourceGraphic" in2="BackgroundImageFix" result="shape"/>
<feGaussianBlur stdDeviation="5" result="effect1_foregroundBlur_48_11013"/>
</filter>
</defs>
</svg>
